<svg width="510" height="350" viewBox="0 0 510 350" fill="none" xmlns="http://www.w3.org/2000/svg">
<path d="M0 335.494V14.5176C-1.17856e-06 10.6692 1.52863 6.97841 4.24995 4.25617C6.97128 1.53393 10.6625 0.00301121 14.5125 0L484.952 30.8526C488.802 30.8526 492.495 32.3806 495.218 35.1007C497.942 37.8208 499.473 41.5105 499.476 45.3588L465.053 279.366L510 318.534H463.2V335.494C463.2 337.4 462.825 339.287 462.095 341.048C461.365 342.808 460.295 344.408 458.946 345.755C457.597 347.102 455.996 348.171 454.234 348.899C452.472 349.627 450.583 350.001 448.676 350H14.5467C12.638 350.004 10.7472 349.632 8.98254 348.905C7.21785 348.178 5.61395 347.111 4.26272 345.763C2.91148 344.416 1.83935 342.815 1.10789 341.053C0.376427 339.291 -5.26702e-06 337.402 0 335.494Z" fill="url(#paint0_linear_2017_65)"/>
<defs>
<linearGradient id="paint0_linear_2017_65" x1="255" y1="0" x2="255" y2="350" gradientUnits="userSpaceOnUse">
<stop stop-color="#F4C64B"/>
<stop offset="1" stop-color="#F4C64B" stop-opacity="0.9"/>
</linearGradient>
</defs>
</svg>
