<svg width="57" height="53" viewBox="0 0 57 53" fill="none" xmlns="http://www.w3.org/2000/svg">
<path d="M3.51192 0.0875699C2.79028 0.279031 2.17365 0.75053 1.7972 1.39865C1.42076 2.04677 1.31526 2.8186 1.50388 3.54483C3.75506 12.1484 0.15318 25.0084 0.110407 25.1374C-0.0952225 25.8589 -0.0074773 26.633 0.354322 27.2894C0.716122 27.9458 1.32231 28.4308 2.03963 28.6377C2.2921 28.711 2.55357 28.7483 2.81634 28.7486C3.42693 28.7478 4.02066 28.5472 4.50797 28.1772C4.99528 27.8072 5.34972 27.2878 5.51776 26.6974C5.68435 26.111 9.58562 12.2231 6.94723 2.10715C6.75683 1.38188 6.28835 0.76206 5.64444 0.383515C5.00053 0.00497055 4.2337 -0.101446 3.51192 0.0875699Z" fill="#F4C64B"/>
<path d="M45.976 13.6723C46.2297 12.9673 46.1948 12.1899 45.8791 11.5107C45.5634 10.8315 44.9927 10.3061 44.2922 10.0497C43.5912 9.79463 42.8182 9.82968 42.1429 10.1472C41.4676 10.4647 40.9452 11.0387 40.6903 11.7433C39.4476 15.1779 34.4792 19.568 26.6969 24.1029C22.7303 26.396 18.6353 28.4567 14.4324 30.2748C13.7432 30.5623 13.1958 31.1132 12.9104 31.8066C12.625 32.4999 12.6251 33.2788 12.9106 33.9721C13.124 34.4891 13.4848 34.9309 13.9475 35.242C14.4102 35.553 14.9542 35.7194 15.5107 35.72C15.8815 35.7167 16.248 35.6398 16.5891 35.4935C21.0036 33.5937 25.3026 31.433 29.4636 29.0228C38.6732 23.6592 44.2291 18.4948 45.976 13.6723Z" fill="#F4C64B"/>
<path d="M55.6674 47.7628C47.5226 42.6935 27.4218 45.2542 25.1571 45.5644C24.7906 45.6139 24.4375 45.7357 24.1179 45.9227C23.7983 46.1097 23.5185 46.3583 23.2946 46.6542C23.0706 46.9501 22.9069 47.2875 22.8128 47.6471C22.7187 48.0067 22.696 48.3815 22.7461 48.7499C22.7957 49.1181 22.9168 49.4728 23.1027 49.7938C23.2886 50.1148 23.5356 50.3958 23.8296 50.6208C24.1235 50.8457 24.4587 51.0103 24.8158 51.1049C25.173 51.1996 25.5452 51.2226 25.9112 51.1725C33.6958 50.1107 47.8513 49.5537 52.7003 52.5763C53.1444 52.8533 53.6567 53 54.1794 52.9996C54.6592 53.0005 55.1313 52.8778 55.5506 52.6432C55.9699 52.4085 56.3224 52.0698 56.5746 51.6593C56.968 51.0216 57.0934 50.2528 56.9233 49.5221C56.7531 48.7914 56.3014 48.1586 55.6674 47.7628Z" fill="#F4C64B"/>
</svg>
