<svg width="172" height="124" viewBox="0 0 172 124" fill="none" xmlns="http://www.w3.org/2000/svg">
<path d="M168.168 71.8281L166.407 61.4904L164.474 51.2198C163.178 44.4079 161.805 37.6281 160.329 30.966C158.853 24.3038 157.323 17.6905 155.616 11.3689C155.506 11.2362 155.372 11.1259 155.221 11.0438L154.966 10.8392L154.418 10.4362L153.289 9.69611C152.747 9.33286 152.184 8.97263 151.605 8.63536C149.847 7.62661 148.059 6.6835 146.227 5.84887C142.954 4.30782 139.546 3.07259 136.046 2.15874C128.931 0.248805 121.521 -0.301741 114.204 0.535996C106.757 1.40045 99.5409 3.66787 92.9358 7.21898C87.3277 10.2732 82.1243 14.021 77.4478 18.3744C71.6693 15.6343 65.5702 13.634 59.2943 12.4208C51.9253 11.0296 44.3613 11.0475 37.001 12.4736C29.7721 13.8826 22.8742 16.6456 16.6686 20.6177C13.6088 22.5458 10.7331 24.7526 8.07807 27.2104C6.56384 28.5624 5.14415 30.0015 3.77328 31.494C3.32292 31.9905 2.91524 32.5008 2.48776 33.014L1.65566 34.0573L1.25413 34.6072L1.05338 34.8822C0.940317 35.011 0.846604 35.1556 0.775128 35.3114C1.06604 41.913 1.60236 48.6595 2.22098 55.4137C2.83959 62.1678 3.56502 69.0883 4.3864 75.9737L5.64597 86.3483L7.08981 96.7351C8.0194 103.665 9.23851 110.631 10.459 117.475L11.3233 122.016C11.3729 122.27 11.4943 122.504 11.673 122.69C11.8517 122.877 12.0801 123.008 12.331 123.068C12.5819 123.127 12.8446 123.113 13.0877 123.028C13.3308 122.942 13.5441 122.788 13.702 122.583L16.4202 119.053C18.3275 116.479 20.4866 114.103 22.8652 111.959C25.3357 109.83 28.0247 107.97 30.8872 106.409C36.9155 103.274 43.501 101.358 50.2689 100.77C57.0833 100.17 63.9476 100.475 70.6835 101.679C76.9832 102.74 83.1641 104.419 89.1374 106.691L91.2986 107.556L93.0976 106.079C98.1033 102.105 103.489 98.6379 109.176 95.7267C115.234 92.5454 121.685 90.181 128.362 88.6948C134.932 87.2337 141.723 87.0673 148.358 88.2047C151.558 88.8274 154.683 89.7886 157.681 91.0721C160.596 92.3973 163.372 94.0108 165.968 95.8885L169.606 98.4358C169.818 98.5893 170.071 98.6773 170.332 98.6889C170.594 98.7004 170.853 98.6351 171.078 98.501C171.303 98.3669 171.483 98.1699 171.598 97.934C171.712 97.6982 171.756 97.4338 171.722 97.1735L171.155 92.5864C170.37 85.675 169.355 78.7179 168.168 71.8281ZM60.5245 98.1274C57.0209 97.9462 53.5101 97.9599 50.0084 98.1681C42.8847 98.4359 35.8475 99.8189 29.1518 102.267C25.7498 103.603 22.5056 105.311 19.478 107.361C18.4019 108.137 17.3746 108.966 16.3595 109.875C15.6658 105.389 15.0909 100.884 14.2784 96.4163L12.5668 86.3961L10.6907 76.3606C9.38963 69.651 8.04591 62.9278 6.52845 56.1297C5.01098 49.3317 3.46893 42.3747 1.67257 35.4775C1.68792 35.5767 1.67261 35.4775 1.83101 35.453L2.06069 35.2346L2.5599 34.7914L3.54456 33.9482L5.58251 32.3118C6.95844 31.2454 8.36031 30.2156 9.79732 29.282C12.6714 27.4043 15.6699 25.7252 18.772 24.256C21.8739 22.8367 25.0815 21.6611 28.3655 20.7401C31.589 19.838 34.8805 19.1999 38.2074 18.832C41.4911 18.4712 44.801 18.4152 48.0954 18.6649C51.3932 18.8705 54.6665 19.3711 57.8759 20.1607C63.6405 21.5712 69.2179 23.6633 74.4911 26.3927C75.4303 32.4671 76.3695 38.5416 77.4474 44.5946L80.999 64.9404C82.1676 71.7111 83.3789 78.4955 84.7089 85.2616C85.8046 90.9053 87.0022 96.5537 88.1802 102.205C82.5394 100.834 76.8218 99.8043 71.0584 99.1207C67.49 98.5952 64.068 98.2299 60.5245 98.1274ZM148.926 83.7469C141.803 83.4343 134.677 84.2413 127.805 86.1387C124.411 86.9982 121.067 88.0445 117.788 89.2729C114.5 90.4317 111.289 91.8227 108.104 93.2502C102.809 95.6436 97.6632 98.3534 92.6931 101.365C92.1092 95.6217 91.5649 89.8723 90.9049 84.1612C90.1292 77.3094 89.2148 70.4791 88.3036 63.6686L85.5443 43.2003C84.7833 37.0983 83.7845 31.0331 82.865 24.9556C87.0675 20.7609 91.7526 17.0821 96.8219 13.9963C99.6362 12.2753 102.599 10.8105 105.674 9.61939C108.746 8.38666 111.925 7.43929 115.171 6.78916C118.454 6.13534 121.784 5.74952 125.129 5.63548C128.506 5.5309 131.885 5.68791 135.238 6.10507C138.64 6.56171 142.006 7.25695 145.311 8.18572C146.983 8.63864 148.63 9.19688 150.264 9.79794L152.681 10.7454L153.894 11.249L154.484 11.5236L154.789 11.6593C154.888 11.644 154.969 11.7738 154.948 11.6348C155.334 18.8517 155.89 25.8595 156.536 32.7923C157.182 39.7251 157.893 46.5463 158.699 53.3324L159.941 63.4658L161.316 73.538C162.01 78.0244 162.703 82.5108 163.397 86.9972C162.181 86.4738 160.951 85.9933 159.685 85.5386C156.2 84.5503 152.619 83.9453 149.005 83.7346L148.926 83.7469Z" fill="#822C7E"/>
</svg>
