<svg width="71" height="102" viewBox="0 0 71 102" fill="none" xmlns="http://www.w3.org/2000/svg">
<path d="M69.4699 26.2477C69.1979 25.3534 68.9396 24.432 68.6268 23.5378L67.5662 20.8956C66.7749 19.1562 65.8664 17.4722 64.8467 15.8551C62.7345 12.5578 60.0985 9.62447 57.0417 7.16995C53.8769 4.6966 50.2945 2.80615 46.4629 1.58756C44.5277 0.973283 42.5447 0.520078 40.5343 0.232609C38.511 0.0226081 36.4754 -0.0453402 34.4426 0.0293331C30.3479 0.192286 26.3128 1.06343 22.5175 2.60377C14.8936 5.75389 8.56966 11.3914 4.58237 18.5922C2.63076 22.1248 1.2539 25.9435 0.503102 29.906L0.136025 32.8869C-0.0135477 33.876 0.0543902 34.8922 0 35.8814C0 36.3827 0 36.8704 0 37.3853L0.149636 38.9706C0.276651 39.9877 0.46276 40.9966 0.707099 41.9922C1.74351 45.7143 3.18427 49.3126 5.00389 52.7234C6.73077 56.0837 8.6617 59.2813 10.6061 62.4519C14.5222 68.7795 18.6558 74.9039 22.7079 81.0825C26.76 87.2611 30.6897 93.5345 34.9457 99.6995L36.5231 102.003L38.6034 99.6995C42.6016 95.3085 46.3513 90.6991 49.835 85.8925C53.3208 81.0757 56.4736 76.0282 59.2717 70.7849C62.0473 65.5143 64.5081 60.0851 66.6416 54.5255C67.7158 51.8156 68.6812 48.943 69.5242 46.0977C70.3914 43.237 70.885 40.2769 70.9928 37.2905C70.9797 33.5585 70.4676 29.8449 69.4699 26.2477ZM68.5317 45.6912C67.4914 48.4169 66.2224 51.0503 64.738 53.5634C61.7427 58.5701 58.4884 63.4183 54.9885 68.0886C51.5528 72.7857 48.158 77.519 44.8039 82.2884L36.4958 94.4694C32.2942 89.7813 28.2149 84.9848 24.4892 79.836C20.1688 73.9016 16.3268 67.6357 12.9992 61.097C11.3486 57.8576 9.88228 54.5282 8.60727 51.1245C7.36884 47.8388 6.45795 44.4396 5.88776 40.976C5.76987 40.1677 5.69727 39.3534 5.67024 38.537V37.3582L5.77896 36.0981C5.88774 35.258 5.86056 34.418 6.05092 33.5915L6.51328 31.1119C7.32089 27.8728 8.62819 24.7783 10.3885 21.9389C13.9243 16.2917 19.1588 11.9009 25.3458 9.39209C28.4077 8.14089 31.6465 7.37291 34.9457 7.11578C36.6007 6.97336 38.2637 6.94612 39.9225 7.0344C41.5815 7.18216 43.2299 7.4311 44.8584 7.77969C48.1801 8.4805 51.3849 9.64841 54.3766 11.2484C57.4136 12.9551 60.166 15.1218 62.5352 17.6708C65.0136 20.2925 66.9618 23.3656 68.2733 26.7219C69.6016 30.1147 70.3107 33.7168 70.3673 37.3582C70.2263 40.2185 69.6058 43.035 68.5317 45.6912Z" fill="#822C7E"/>
<path d="M48.2441 25.0964C46.9766 23.2768 45.2697 21.8044 43.281 20.8148C41.2356 19.826 38.9998 19.2897 36.7269 19.243C34.456 19.2283 32.2078 19.6943 30.131 20.6099C28.0542 21.5255 26.1961 22.87 24.6795 24.5545C23.1666 26.1791 22.0254 28.1114 21.3345 30.2182C20.6944 32.2721 20.4997 34.4383 20.7634 36.5729C21.2886 40.6298 23.0767 44.4207 25.8761 47.4125C27.251 48.9356 28.8458 50.2462 30.6081 51.3012C32.4751 52.4048 34.5653 53.0805 36.7269 53.2794C38.9461 53.4468 41.1718 53.0554 43.1994 52.1413C45.1886 51.2407 46.9083 49.8398 48.1897 48.0764C49.3864 46.3725 50.2534 44.4608 50.746 42.4398C51.2233 40.5476 51.4699 38.6051 51.4803 36.6542C51.497 34.6996 51.264 32.7509 50.7868 30.8549C50.3064 28.7944 49.444 26.8415 48.2441 25.0964ZM49.4678 41.8301C48.5127 43.3274 47.2413 44.599 45.7421 45.5562C43.0202 47.289 39.9364 48.3781 36.7269 48.7403C35.0723 48.9505 33.3938 48.8772 31.7639 48.5236C30.0368 48.1396 28.4363 47.3236 27.1135 46.1524C25.8036 44.9556 24.8104 43.455 24.2222 41.7839C23.6339 40.1128 23.4687 38.3229 23.7413 36.5729C23.991 34.9234 24.5442 33.334 25.373 31.8847C26.1307 30.4922 27.1244 29.2408 28.3101 28.1857C30.6586 26.1862 33.6381 25.0734 36.7269 25.0422C38.2648 25.0008 39.7992 25.2113 41.2686 25.6655C42.8258 26.1196 44.3128 26.7853 45.6878 27.6437C47.2019 28.5695 48.4814 29.8307 49.4271 31.3292C50.4017 32.9068 50.9237 34.7204 50.9364 36.5729C50.9513 38.4278 50.4424 40.2496 49.4678 41.8301Z" fill="#822C7E"/>
</svg>
