<svg width="63" height="58" viewBox="0 0 63 58" fill="none" xmlns="http://www.w3.org/2000/svg">
<g clip-path="url(#clip0_2094_80)">
<path d="M0.526476 27.9033C0.626885 25.5271 0.691989 23.1646 0.702844 20.832C0.702844 20.2482 0.702844 19.6671 0.702844 19.086C0.702844 18.5049 0.702826 17.9293 0.683829 17.3509C0.683829 16.1997 0.640404 15.0593 0.610552 13.9244C0.533594 12.7907 0.382219 11.6633 0.157375 10.5497C-0.0308793 9.46764 -0.0436802 8.3621 0.119412 7.27593C0.195397 6.73031 0.274043 6.18468 0.404304 5.63906C0.461293 5.36624 0.548133 5.07708 0.607836 4.80153C0.667539 4.52599 0.746251 4.25592 0.82495 3.95855C0.903649 3.66119 0.995917 3.38563 1.09633 3.08826C1.19674 2.7909 1.30532 2.49625 1.40302 2.19616C1.62602 1.53454 1.89816 0.89073 2.21714 0.270118L2.23609 0.237382C2.26233 0.187106 2.29826 0.142565 2.34177 0.106371C2.38528 0.0701762 2.43554 0.0430457 2.48958 0.0265451C2.54362 0.0100444 2.60035 0.00450832 2.65654 0.0102602C2.71273 0.0160121 2.76725 0.0329347 2.81688 0.0600472C2.83737 0.0692404 2.85653 0.081171 2.87385 0.0955142C3.99697 0.956348 4.91635 2.05668 5.56589 3.31742C5.72328 3.61205 5.88073 3.91216 6.02185 4.21771C6.16296 4.52326 6.26338 4.82608 6.36922 5.13436C6.58134 5.74557 6.75444 6.36975 6.88752 7.00312C7.00115 7.62513 7.06105 8.25587 7.06661 8.88826C7.06661 9.0465 7.06661 9.20472 7.06661 9.36023C7.06661 9.51573 7.03406 9.67125 7.01778 9.82676C6.97978 10.1405 6.92549 10.4487 6.86579 10.7598L6.66769 11.6846C6.59985 11.9901 6.50761 12.293 6.43163 12.5958C6.27151 13.2014 6.13853 13.8071 6.0137 14.4073C5.52369 16.7959 4.86436 19.1463 4.04079 21.4404C3.63372 22.5835 3.20492 23.7102 2.72458 24.8205C2.48849 25.3662 2.24155 25.9282 1.99188 26.4765C1.74222 27.0249 1.47084 27.5678 1.17775 28.1134C1.15589 28.1538 1.12635 28.1894 1.09076 28.2182C1.05518 28.2471 1.01425 28.2686 0.970378 28.2815C0.92651 28.2944 0.880532 28.2985 0.835087 28.2935C0.789642 28.2886 0.745635 28.2746 0.705561 28.2525C0.648713 28.2216 0.601596 28.1753 0.569475 28.1189C0.537354 28.0625 0.521523 27.9983 0.52376 27.9333L0.526476 27.9033Z" fill="#F4C64B"/>
<path d="M16.022 36.0659C19.0234 34.1944 21.9923 32.312 24.896 30.3368C25.6197 29.8494 26.3434 29.3565 27.067 28.8582C27.7835 28.3617 28.4999 27.8679 29.2055 27.3577C30.6239 26.361 32.0178 25.3453 33.3874 24.3104C33.7266 24.0376 34.0713 23.7893 34.3969 23.5083L35.3685 22.6681C35.686 22.3952 35.9926 22.0842 36.3074 21.795C36.6222 21.5059 36.9262 21.2167 37.2301 20.922C38.4309 19.7844 39.7174 18.7419 41.0782 17.8038C42.4188 16.8708 43.792 15.9841 45.1489 15.0593C45.4772 14.8247 45.8165 14.5873 46.1774 14.3555C46.5383 14.1236 46.8504 13.8671 47.214 13.6188C47.5776 13.3706 47.8925 13.0978 48.2724 12.8277C48.6523 12.5576 48.9726 12.252 49.3796 11.9465L49.4176 11.9192C49.4571 11.8893 49.5021 11.8675 49.55 11.8551C49.5979 11.8427 49.6477 11.84 49.6967 11.8471C49.7456 11.8542 49.7927 11.871 49.8351 11.8965C49.8776 11.922 49.9146 11.9557 49.9441 11.9956C49.9847 12.0487 50.01 12.1119 50.0173 12.1784C50.0809 12.6914 50.1008 13.2089 50.077 13.7252C50.0317 14.2364 49.9584 14.7446 49.8573 15.2475C49.7324 15.7331 49.5994 16.2324 49.4339 16.7153C49.2684 17.1982 49.0648 17.6456 48.8613 18.1093C48.0017 19.865 46.8909 21.4845 45.5641 22.9163C44.9248 23.6123 44.2324 24.2572 43.4934 24.8451C42.7577 25.4154 41.9813 25.9305 41.1705 26.3865C39.5423 27.2977 37.8814 28.0725 36.2857 28.9236C33.1039 30.606 29.8221 32.0902 26.4591 33.3678C23.1299 34.6564 19.7347 35.7656 16.288 36.6906C16.2445 36.7021 16.1992 36.7047 16.1547 36.6984C16.1102 36.6921 16.0674 36.6769 16.0287 36.6538C15.9901 36.6307 15.9564 36.6001 15.9297 36.5638C15.9029 36.5275 15.8835 36.4862 15.8728 36.4424C15.8547 36.3718 15.8595 36.2973 15.8863 36.2297C15.9132 36.162 15.9607 36.1046 16.022 36.0659Z" fill="#F4C64B"/>
<path d="M28.1933 54.7071C29.6208 54.2515 31.0536 53.8668 32.5 53.5067C33.9465 53.1466 35.3983 52.8247 36.8611 52.5301C39.798 51.9361 42.7676 51.5188 45.7541 51.2806C47.2575 51.1633 48.7772 50.9205 50.3213 50.8086C51.0936 50.7472 51.8693 50.7472 52.6416 50.8086C53.0269 50.8495 53.415 50.9041 53.7976 50.975C54.1803 51.0459 54.5683 51.1442 54.9483 51.2478C56.5193 51.6779 58.0195 52.3359 59.4016 53.2012C59.7544 53.4358 60.0981 53.6795 60.4328 53.9323C60.7693 54.2051 61.0895 54.4943 61.3989 54.7862C61.7046 55.1 61.9927 55.4306 62.2619 55.7765C62.5251 56.1371 62.7557 56.5206 62.9512 56.9223C62.9758 56.9698 62.9907 57.0218 62.9949 57.0752C62.9992 57.1286 62.9928 57.1823 62.9761 57.2331C62.9594 57.284 62.9328 57.331 62.8977 57.3713C62.8627 57.4116 62.8199 57.4445 62.7721 57.468C62.7299 57.4898 62.6837 57.5028 62.6364 57.5062H62.593C62.1506 57.5498 61.749 57.5716 61.3636 57.5907C60.9783 57.6098 60.5957 57.648 60.2293 57.6753C59.8629 57.7026 59.4939 57.738 59.1438 57.7571C58.7937 57.7762 58.43 57.8199 58.0854 57.8363C56.6851 57.9427 55.3255 57.9999 53.9605 57.9999C52.5851 58.0015 51.214 57.8459 49.8735 57.5362C49.1897 57.3752 48.495 57.2251 47.7975 57.0696C47.1001 56.9141 46.3945 56.7968 45.6862 56.7259C44.2696 56.5622 42.8395 56.4258 41.4012 56.303C40.682 56.2294 39.9629 56.1721 39.2302 56.1094C38.4974 56.0466 37.7837 55.9866 37.0592 55.9348C35.6073 55.8229 34.1473 55.7301 32.6819 55.6347C31.9492 55.5856 31.2164 55.5446 30.4837 55.5064L28.2747 55.3837C28.2295 55.3812 28.185 55.3698 28.1442 55.3501C28.1033 55.3304 28.0667 55.3028 28.0364 55.2688C28.0062 55.2349 27.9829 55.1952 27.9679 55.1522C27.9529 55.1092 27.9465 55.0636 27.949 55.0181C27.954 54.9476 27.9799 54.8802 28.0235 54.8248C28.0671 54.7693 28.1262 54.7283 28.1933 54.7071Z" fill="#F4C64B"/>
</g>
<defs>
<clipPath id="clip0_2094_80">
<rect width="63" height="58" fill="white"/>
</clipPath>
</defs>
</svg>
