<svg width="275" height="261" viewBox="0 0 275 261" fill="none" xmlns="http://www.w3.org/2000/svg">
<path fill-rule="evenodd" clip-rule="evenodd" d="M137.274 179.989C213.088 179.989 274.548 139.881 274.548 90.4043C274.548 40.9279 213.088 0.819336 137.274 0.819336C61.4597 0.819336 0 40.9279 0 90.4043C0 115.818 16.2158 138.76 42.2634 155.065C43.4485 229.59 72.478 260.68 72.478 260.68C61.6972 206.169 66.5802 179.206 70.0582 168.534C89.9249 175.828 112.855 179.989 137.274 179.989Z" fill="#57B1A7"/>
<path d="M61.9475 49.9487H212.601V138.64H61.9475V49.9487Z" fill="#EBB31B"/>
<path d="M138.212 91.2827L212.595 138.64L61.9426 138.64L138.212 91.2827Z" fill="#F4C64B"/>
<path d="M138.212 98.6681L61.9426 49.9453H212.595L138.212 98.6681Z" fill="#FDD876"/>
<path d="M83.3545 134.662C83.3545 143.612 76.0993 150.867 67.1497 150.867C58.2 150.867 50.9448 143.612 50.9448 134.662C50.9448 125.712 58.2 118.457 67.1497 118.457C76.0993 118.457 83.3545 125.712 83.3545 134.662Z" fill="#FD6565"/>
<path d="M68.7928 128.062V140.662H66.4528V130.024H63.7888V128.062H68.7928Z" fill="white"/>
</svg>
