<svg width="90" height="91" viewBox="0 0 90 91" fill="none" xmlns="http://www.w3.org/2000/svg">
<path d="M65.736 54.7849C65.736 58.5648 66.8115 60.0723 69.624 60.0723C75.8925 60.0723 79.884 52.0849 79.884 38.8008C79.884 18.4968 65.088 8.77685 46.6155 8.77685C27.612 8.77685 10.3275 21.5208 10.3275 45.6049C10.3275 68.6088 25.4475 81.1369 48.6675 81.1369C56.5515 81.1369 61.8435 80.2729 69.939 77.5729L71.676 84.8044C63.684 87.4009 55.143 88.1524 48.5595 88.1524C18.1035 88.1524 1.79102 71.4123 1.79102 45.6003C1.79102 19.5723 20.6955 1.86035 46.7235 1.86035C73.8315 1.86035 88.191 18.0604 88.191 37.9324C88.191 54.7803 82.9035 67.6324 66.2715 67.6324C58.707 67.6324 53.7435 64.6084 53.0955 57.9079C51.1515 65.3599 45.9675 67.6324 38.943 67.6324C29.547 67.6324 21.663 60.3918 21.663 45.8163C21.663 31.1283 28.5795 22.0564 40.9995 22.0564C47.5875 22.0564 51.6915 24.6484 53.5185 28.7523L56.655 23.0283H65.727V54.7849H65.736ZM52.4565 40.5289C52.4565 34.5933 48.024 32.1049 44.352 32.1049C40.356 32.1049 35.9325 35.3404 35.9325 44.8489C35.9325 52.4088 39.2805 56.6208 44.352 56.6208C47.916 56.6208 52.4565 54.3529 52.4565 48.0889V40.5289Z" fill="#085F55"/>
</svg>
