<svg width="324" height="68" viewBox="0 0 324 68" fill="none" xmlns="http://www.w3.org/2000/svg">
<g clip-path="url(#clip0_4006_2)">
<path d="M315.267 1.43519C308.873 1.43519 302.472 1.5274 296.078 1.74642L276.888 2.39196C270.491 2.54566 264.096 2.60522 257.704 2.57064C254.505 2.57064 251.307 2.52837 248.109 2.44383C247.721 2.44383 247.27 2.44383 246.951 2.44383C246.612 2.4527 246.273 2.48738 245.939 2.54758C245.265 2.66811 244.616 2.89786 244.017 3.22769C242.795 3.90603 241.829 4.96213 241.263 6.23633C240.978 6.87557 240.8 7.55704 240.736 8.25362C240.701 8.58792 240.701 8.99714 240.69 9.40636L240.661 10.5995L240.539 15.3776L240.424 20.1556L240.348 24.9338C240.302 28.1211 240.308 31.2738 240.285 34.4899C240.262 37.7061 240.285 40.8588 240.337 44.0461C240.287 45.5479 240.73 47.0248 241.598 48.2536C242.466 49.4542 243.704 50.3405 245.123 50.7781C245.822 50.9891 246.551 51.0864 247.281 51.0663L249.677 51.0202L254.475 50.9164C260.875 50.7724 267.27 50.6167 273.664 50.5303H274.318L274.694 51.1067L283.682 64.7032H281.367L289.631 50.951L290.065 50.2248H290.927C297.872 50.2248 304.816 50.1672 311.76 50.2248H314.37C315.126 50.2761 315.884 50.2296 316.627 50.0865C318.008 49.7742 319.236 48.9914 320.1 47.8732C320.533 47.3167 320.861 46.6857 321.066 46.0115C321.173 45.6754 321.249 45.33 321.292 44.9799C321.292 44.8012 321.326 44.6283 321.332 44.4496C321.338 44.2709 321.332 44.0288 321.332 43.8213L321.46 38.634L322.154 17.8847L322.304 12.6974L322.362 10.1038C322.408 9.25265 322.393 8.39936 322.316 7.55045C322.081 5.86623 321.237 4.32517 319.943 3.21617C318.647 2.08759 316.989 1.45615 315.267 1.43519ZM315.267 1.147C317.062 1.13562 318.801 1.76085 320.175 2.91069C321.555 4.07014 322.488 5.67168 322.814 7.44094C322.889 7.88096 322.929 8.32609 322.935 8.77235V10.075L322.993 12.6686L323.144 17.8559L323.838 38.6052L323.965 43.7925V44.4669C323.965 44.7205 323.965 44.9741 323.936 45.2277C323.887 45.74 323.795 46.2471 323.659 46.7435C323.382 47.7384 322.931 48.6768 322.328 49.5159C321.566 50.5694 320.578 51.4407 319.436 52.0668C318.294 52.6929 317.026 53.0579 315.725 53.1355C315.146 53.1643 314.793 53.1355 314.341 53.1355H311.731C304.787 53.1989 297.843 53.1758 290.898 53.1355L292.2 52.4093L283.705 66.1268L282.547 68.0058L281.39 66.1556L272.64 52.3747L273.67 52.951C267.304 52.8646 260.881 52.709 254.48 52.5591L249.683 52.4611L247.287 52.415C246.416 52.3994 245.552 52.2457 244.729 51.9597C243.086 51.3797 241.676 50.2833 240.713 48.8358C239.759 47.4141 239.289 45.7252 239.37 44.0173C239.411 40.83 239.405 37.6773 239.422 34.4611C239.44 31.245 239.422 28.1211 239.353 24.9049L239.284 20.1268L239.168 15.3487L239.046 10.5706V9.37755C239.046 8.98562 239.017 8.59368 239.046 8.12682C239.082 7.23266 239.266 6.35054 239.59 5.51587C240.254 3.8197 241.452 2.38371 243.005 1.42365C243.786 0.943971 244.64 0.593611 245.534 0.386194C245.983 0.284371 246.44 0.216928 246.899 0.184461C247.385 0.155643 247.733 0.155638 248.149 0.144111C251.344 0.0807105 254.515 0.0288366 257.744 0.0173092C264.141 -0.0211154 270.536 0.0403682 276.928 0.201751L296.118 0.84153C302.472 1.05479 308.873 1.12971 315.267 1.147Z" fill="#F4C64B"/>
<path d="M293.403 9.90377C285.12 6.10552 267.615 7.9646 262.647 15.716C258.203 22.634 259.401 33.6334 265.892 38.7939C264.667 40.8749 263.692 43.0949 262.986 45.4075C262.967 45.4863 262.969 45.5686 262.99 45.6467C263.011 45.7249 263.052 45.7963 263.108 45.8544C263.164 45.9125 263.234 45.9554 263.311 45.979C263.388 46.0027 263.469 46.0064 263.548 45.9898C266.751 44.9461 269.876 43.6769 272.902 42.1915C281.917 44.8626 299.018 43.9598 302.81 34.2425C306.251 25.4173 301.961 13.8302 293.403 9.90377Z" fill="#F4C64B"/>
</g>
<g clip-path="url(#clip1_4006_2)">
<path d="M195.37 1.43518C189.079 1.43518 182.725 1.52741 176.406 1.74643L157.442 2.38619C151.124 2.53989 144.803 2.59944 138.478 2.56486C135.321 2.56486 132.162 2.52259 129.002 2.43806C128.618 2.43806 128.172 2.43806 127.858 2.43806C127.522 2.44693 127.188 2.4816 126.857 2.5418C126.191 2.66233 125.55 2.8921 124.958 3.22193C123.75 3.90161 122.793 4.95712 122.23 6.23058C121.951 6.87249 121.775 7.55553 121.71 8.25362C121.681 8.58215 121.681 8.99137 121.67 9.40636L121.636 10.5994L121.521 15.3775L121.407 20.1556L121.333 24.9337C121.281 28.1211 121.292 31.3026 121.27 34.4899C121.247 37.6773 121.27 40.8588 121.321 44.0461C121.272 45.5479 121.71 47.0248 122.568 48.2536C123.428 49.4393 124.646 50.3128 126.039 50.7435C126.73 50.9545 127.451 51.0518 128.172 51.0317L130.54 50.9856L135.281 50.8819C141.6 50.7378 147.926 50.5821 154.245 50.4957H154.891L155.263 51.0721L164.162 64.634L161.84 64.6628L170.012 50.9107L170.441 50.1844H171.293C178.156 50.1844 185.019 50.1268 191.882 50.1844H194.461C195.207 50.2358 195.957 50.1893 196.691 50.0461C198.055 49.7325 199.269 48.95 200.123 47.8329C200.551 47.2764 200.875 46.6454 201.078 45.9712C201.181 45.6343 201.256 45.2892 201.301 44.9395C201.301 44.7608 201.335 44.5879 201.341 44.4092C201.346 44.2306 201.341 43.9885 201.341 43.781L201.472 38.5937L202.158 17.8444L202.301 12.6571L202.364 10.0634C202.41 9.21231 202.394 8.35902 202.319 7.51012C202.087 5.82457 201.25 4.28286 199.968 3.17581C198.688 2.06606 197.059 1.44938 195.37 1.43518ZM195.37 1.147C197.143 1.13562 198.862 1.76084 200.22 2.91069C201.582 4.072 202.503 5.67268 202.828 7.44094C202.899 7.88132 202.939 8.32624 202.948 8.77235V10.0749L203.005 12.6686L203.148 17.8559L203.84 38.6052L203.966 43.7925V44.4669C203.966 44.7205 203.954 44.9741 203.931 45.2277C203.885 45.7398 203.795 46.2469 203.663 46.7435C203.389 47.7384 202.944 48.6768 202.347 49.5159C201.142 51.2174 199.367 52.4214 197.349 52.9049C196.848 53.0276 196.337 53.1047 195.822 53.1355C195.25 53.1643 194.895 53.1355 194.455 53.1355H191.876C185.013 53.1989 178.15 53.1758 171.288 53.1355L172.569 52.4092L164.173 66.0231L163.029 67.902L161.886 66.0519L153.267 52.2824L154.285 52.8588C147.994 52.7724 141.641 52.6167 135.321 52.4669L130.58 52.3689L128.212 52.3228C127.351 52.3078 126.498 52.154 125.685 51.8675C124.061 51.2924 122.668 50.1998 121.716 48.7551C120.771 47.3344 120.306 45.6447 120.389 43.9366C120.429 40.7493 120.389 37.5677 120.44 34.3804C120.492 31.1931 120.44 28.0115 120.372 24.8242L120.303 20.0461L120.189 15.268L120.069 10.4899L120.04 9.29684C120.04 8.90491 120.011 8.51299 120.04 8.04613C120.076 7.15197 120.257 6.26985 120.578 5.43518C121.231 3.73772 122.416 2.30111 123.952 1.34296C124.723 0.862367 125.567 0.511944 126.451 0.305505C126.895 0.203279 127.346 0.135832 127.801 0.103772C128.281 0.074954 128.624 0.0749498 129.036 0.0634224C132.193 2.18078e-05 135.327 -0.0518521 138.512 -0.0633795C144.837 -0.105647 151.159 -0.044163 157.476 0.121063L176.44 0.760824C182.725 1.05477 189.051 1.12971 195.37 1.147Z" fill="#F4C64B"/>
<path d="M181.936 15.7003C181.74 15.0287 181.507 14.3687 181.239 13.7233C180.935 13.0326 180.551 12.3806 180.095 11.7809C179.624 11.1618 179.068 10.6144 178.442 10.1556C177.808 9.71501 177.112 9.37304 176.377 9.14119C175.67 8.91337 174.935 8.78157 174.193 8.74926C173.485 8.7428 172.779 8.80455 172.083 8.93368C171.41 9.05596 170.748 9.23331 170.104 9.46395C169.483 9.70728 168.879 9.99227 168.297 10.317C167.146 10.9439 166.089 11.7317 165.157 12.657C164.695 13.1092 164.267 13.5946 163.876 14.1095C163.513 14.5741 163.226 15.0935 163.024 15.6484C162.944 15.3199 162.892 15.0029 162.852 14.7204C162.836 14.4399 162.764 14.1654 162.641 13.9135C162.389 13.301 162.067 12.7206 161.68 12.1844C160.895 11.0613 159.898 10.1055 158.746 9.37173C157.568 8.6409 156.271 8.12758 154.914 7.85588C154.231 7.70956 153.536 7.62088 152.838 7.59075C152.132 7.57762 151.427 7.62196 150.728 7.72332C149.287 7.92643 147.902 8.42126 146.656 9.17802C145.409 9.93477 144.328 10.9378 143.476 12.1268C142.616 13.3032 141.997 14.6402 141.654 16.0602C141.311 17.4801 141.252 18.9545 141.48 20.3977C142.033 23.0655 143.168 25.5758 144.803 27.7464C146.318 29.8161 147.957 31.791 149.71 33.6599C151.426 35.5389 153.17 37.3487 154.903 39.1815C155.772 40.0922 156.618 41.0144 157.476 41.9366C157.9 42.3977 158.317 42.8703 158.723 43.3371L159.329 44.0461C159.449 44.1844 159.478 44.2363 159.672 44.4438C159.822 44.5849 159.992 44.7034 160.176 44.7954C160.45 45.0217 160.788 45.1567 161.142 45.1815C161.437 45.1939 161.732 45.1428 162.006 45.0317L162.926 44.7204C163.543 44.5271 164.149 44.298 164.739 44.0346C165.933 43.535 167.092 42.9574 168.211 42.3055C170.428 40.9546 172.496 39.3703 174.382 37.5792C176.262 35.7352 177.931 33.6839 179.357 31.464C180.767 29.1454 181.774 26.6018 182.337 23.9423C182.863 21.2025 182.725 18.3752 181.936 15.7003Z" fill="#F4C64B"/>
</g>
<g clip-path="url(#clip2_4006_2)">
<path d="M76.2674 1.44097C69.9016 1.44097 63.478 1.53318 57.0834 1.7522L37.8935 2.39198C31.5008 2.54568 25.1042 2.60716 18.7037 2.57642C15.5035 2.57642 12.338 2.51302 9.10882 2.44962C8.72688 2.44962 8.2697 2.4208 7.95141 2.44962C7.61181 2.45626 7.27322 2.48901 6.93868 2.54759C6.26511 2.67083 5.61619 2.90248 5.01738 3.23347C4.09881 3.73988 3.31887 4.46282 2.74583 5.33901C2.1728 6.21519 1.82413 7.21792 1.73035 8.25941C1.73035 8.5937 1.69562 8.99716 1.68405 9.41215V10.6052L1.56252 15.3833L1.44678 20.1614L1.37734 24.9395C1.32525 28.1211 1.33104 31.2796 1.30789 34.4957C1.28474 37.7118 1.30789 40.8646 1.35998 44.0461C1.31339 45.5493 1.75592 47.0272 2.62155 48.2594C3.26707 49.1538 4.12223 49.8777 5.11266 50.3679C6.10309 50.8581 7.19879 51.0998 8.30442 51.0721L10.706 51.0202L15.5035 50.9222C21.8982 50.7724 28.2929 50.6167 34.6933 50.5303H35.3472L35.7234 51.1067L44.7107 64.7032L42.3611 64.732L50.625 50.9799L51.0648 50.2594H51.9271C58.8716 50.2594 65.816 50.2075 72.7604 50.2594H75.3646C76.1198 50.3109 76.8784 50.2644 77.6216 50.1211C79.0014 49.8061 80.2287 49.0239 81.0938 47.9078C81.5205 47.3469 81.8474 46.7172 82.0602 46.0461C82.1641 45.7071 82.2396 45.3601 82.2859 45.0087C82.2859 44.8358 82.3206 44.6571 82.3264 44.4784C82.3322 44.2997 82.3264 44.0577 82.3264 43.856L82.4537 38.6686L83.154 17.9194L83.2986 12.732L83.3565 10.1326C83.4071 9.28169 83.3935 8.4282 83.316 7.5793C83.0798 5.89582 82.2339 4.35638 80.9375 3.25076C79.6481 2.11082 77.9913 1.46876 76.2674 1.44097ZM76.2674 1.15279C78.064 1.13749 79.8068 1.76311 81.1806 2.91648C82.5587 4.07714 83.4894 5.67842 83.8137 7.44673C83.8917 7.88634 83.9323 8.33172 83.9352 8.77814V10.075L83.9989 12.6744L84.1435 17.8617L84.838 38.611L84.9711 43.7983V44.4669C84.9711 44.7205 84.9711 44.9799 84.9364 45.2335C84.8898 45.7442 84.7968 46.2496 84.6586 46.7435C84.2477 48.2443 83.4405 49.6079 82.321 50.6926C81.2014 51.7772 79.8105 52.5431 78.2928 52.9107C77.7858 53.0336 77.2687 53.1108 76.7477 53.1412C76.169 53.1412 75.816 53.1412 75.3646 53.1412H72.7604C65.816 53.2104 58.8716 53.1816 51.9271 53.1412L53.2234 52.415L44.728 66.0231L43.5706 67.9078L42.4132 66.0519L33.6979 52.2882L34.728 52.8646C28.3276 52.7781 21.9329 52.6225 15.5382 52.4727L10.7408 52.3689L8.33914 52.3228C7.46801 52.3087 6.60465 52.1569 5.78127 51.8732C4.15393 51.3105 2.75017 50.2438 1.77549 48.8291C0.800811 47.4145 0.306391 45.7263 0.364606 44.0116C0.410903 40.83 0.399326 37.6427 0.416688 34.4611C0.434049 31.2796 0.416692 28.0865 0.353034 24.9049L0.2778 20.1268L0.162061 15.3487L0.0463175 10.5707L0.0115967 9.37757C0.0115967 8.97987 0.0115967 8.58793 0.0115967 8.12684C0.0740422 6.7731 0.467221 5.455 1.15701 4.28688C1.8468 3.11877 2.81237 2.13594 3.96993 1.42368C4.75084 0.942259 5.60487 0.589941 6.49886 0.380439C6.94888 0.281847 7.40523 0.214457 7.86461 0.178724C8.35072 0.178724 8.70373 0.178725 9.11461 0.144143C12.3168 0.0749786 15.5151 0.030784 18.7095 0.0115717C25.1061 -0.0306953 31.5027 0.0307882 37.8993 0.196014L57.0776 0.841544C63.478 1.06056 69.8727 1.13549 76.2674 1.1816V1.15279Z" fill="#F4C64B"/>
<path d="M59.9711 42.2536C59.6726 40.155 59.1528 38.0937 58.4201 36.1037C57.6963 34.1411 56.7977 32.2469 55.7349 30.4438C54.6795 28.6606 53.4959 26.9559 52.1933 25.3429C51.5393 24.5418 50.8507 23.7752 50.1389 23.0374C49.7859 22.6628 49.4271 22.2939 49.0625 21.9366C50.862 20.9513 52.2598 19.3716 53.015 17.4697C53.754 15.5374 53.803 13.4107 53.1539 11.4467C52.8481 10.4855 52.3804 9.58308 51.7708 8.77807C51.1526 8.00096 50.4024 7.33773 49.5544 6.81842C47.913 5.83331 46.0248 5.33169 44.1088 5.37173C42.2137 5.40552 40.3581 5.91713 38.7153 6.85877C36.9569 7.84581 35.6519 9.4741 35.0752 11.4006C34.5157 13.3429 34.6823 15.4213 35.544 17.2507C36.3564 19.0249 37.8424 20.4054 39.6759 21.0893L40.2083 21.1815L40.1273 21.2622C38.6823 22.727 37.3422 24.2909 36.1169 25.9423C34.8829 27.596 33.7597 29.3288 32.7546 31.1297C31.7349 32.9325 30.8752 34.8205 30.1852 36.7723C29.4834 38.7373 28.9775 40.7663 28.6748 42.83L28.5301 43.7233H29.485H44.1088L51.4236 43.7694C53.8599 43.7694 56.3021 43.7694 58.7384 43.7003L60.2083 43.6657L59.9711 42.2536Z" fill="#F4C64B"/>
</g>
<defs>
<clipPath id="clip0_4006_2">
<rect width="85" height="68" fill="white" transform="translate(239)"/>
</clipPath>
<clipPath id="clip1_4006_2">
<rect width="84" height="68" fill="white" transform="translate(120)"/>
</clipPath>
<clipPath id="clip2_4006_2">
<rect width="85" height="68" fill="white"/>
</clipPath>
</defs>
</svg>
