<svg width="90" height="91" viewBox="0 0 90 91" fill="none" xmlns="http://www.w3.org/2000/svg">
<g clip-path="url(#clip0_4132_1041)">
<path d="M90 45.0107C90 20.1581 69.8527 0.0107422 45 0.0107422C20.1473 0.0107422 0 20.1581 0 45.0107C0 67.4714 16.4559 86.0884 37.9688 89.4641V58.0186H26.543V45.0107H37.9688V35.0967C37.9688 23.8186 44.6871 17.5889 54.9661 17.5889C59.8894 17.5889 65.0391 18.4678 65.0391 18.4678V29.542H59.3648C53.7746 29.542 52.0312 33.0109 52.0312 36.5697V45.0107H64.5117L62.5166 58.0186H52.0312V89.4641C73.5441 86.0884 90 67.4717 90 45.0107Z" fill="#1877F2"/>
<path d="M62.5166 58.0186L64.5117 45.0107H52.0312V36.5697C52.0312 33.0105 53.7746 29.542 59.3648 29.542H65.0391V18.4678C65.0391 18.4678 59.8894 17.5889 54.9657 17.5889C44.6871 17.5889 37.9688 23.8186 37.9688 35.0967V45.0107H26.543V58.0186H37.9688V89.4641C40.2948 89.8285 42.6456 90.0113 45 90.0107C47.3544 90.0113 49.7052 89.8285 52.0312 89.4641V58.0186H62.5166Z" fill="white"/>
</g>
<defs>
<clipPath id="clip0_4132_1041">
<rect width="90" height="90" fill="white" transform="translate(0 0.0107422)"/>
</clipPath>
</defs>
</svg>
