<svg width="90" height="91" viewBox="0 0 90 91" fill="none" xmlns="http://www.w3.org/2000/svg">
<g clip-path="url(#clip0_4132_1044)">
<path d="M68.9062 0.0107422H21.0938C9.44399 0.0107422 0 9.45474 0 21.1045V68.917C0 80.5667 9.44399 90.0107 21.0938 90.0107H68.9062C80.556 90.0107 90 80.5667 90 68.917V21.1045C90 9.45474 80.556 0.0107422 68.9062 0.0107422Z" fill="url(#paint0_radial_4132_1044)"/>
<path d="M68.9062 0.0107422H21.0938C9.44399 0.0107422 0 9.45474 0 21.1045V68.917C0 80.5667 9.44399 90.0107 21.0938 90.0107H68.9062C80.556 90.0107 90 80.5667 90 68.917V21.1045C90 9.45474 80.556 0.0107422 68.9062 0.0107422Z" fill="url(#paint1_radial_4132_1044)"/>
<path d="M45.0032 9.85449C35.4554 9.85449 34.257 9.89633 30.5072 10.0668C26.7645 10.2384 24.2096 10.8308 21.9744 11.7002C19.6618 12.5981 17.7005 13.7994 15.7465 15.7541C13.7907 17.7084 12.5895 19.6698 11.6888 21.9813C10.8169 24.2172 10.2238 26.7731 10.0554 30.5141C9.8877 34.2642 9.84375 35.463 9.84375 45.0111C9.84375 54.5592 9.88594 55.7538 10.0561 59.5036C10.2284 63.2463 10.8207 65.8011 11.6895 68.0363C12.588 70.3489 13.7893 72.3103 15.744 74.2643C17.6977 76.22 19.659 77.4241 21.9698 78.322C24.2068 79.1914 26.762 79.7838 30.504 79.9554C34.2541 80.1259 35.4516 80.1677 44.9989 80.1677C54.5477 80.1677 55.7423 80.1259 59.4921 79.9554C63.2348 79.7838 65.7925 79.1914 68.0295 78.322C70.341 77.4241 72.2995 76.22 74.2528 74.2643C76.2085 72.3103 77.4095 70.3489 78.3105 68.0374C79.1747 65.8011 79.7681 63.2456 79.9439 59.5043C80.1123 55.7545 80.1562 54.5592 80.1562 45.0111C80.1562 35.463 80.1123 34.2649 79.9439 30.5148C79.7681 26.772 79.1747 24.2176 78.3105 21.9823C77.4095 19.6698 76.2085 17.7084 74.2528 15.7541C72.2974 13.7987 70.3417 12.5974 68.0273 11.7005C65.7861 10.8308 63.2299 10.238 59.4872 10.0668C55.7371 9.89633 54.5432 9.85449 44.9923 9.85449H45.0032ZM41.8493 16.19C42.7855 16.1886 43.83 16.19 45.0032 16.19C54.3902 16.19 55.5026 16.2238 59.2095 16.3921C62.6372 16.5489 64.4977 17.1216 65.7369 17.6029C67.3777 18.24 68.5473 19.0018 69.7771 20.2326C71.0075 21.4631 71.769 22.6348 72.4078 24.2756C72.8891 25.5131 73.4625 27.3736 73.6186 30.8013C73.787 34.5075 73.8236 35.6205 73.8236 45.003C73.8236 54.3855 73.787 55.4989 73.6186 59.2047C73.4618 62.6325 72.8891 64.4929 72.4078 65.7308C71.7708 67.3715 71.0075 68.5398 69.7771 69.7695C68.5466 71 67.3784 71.7615 65.7369 72.3989C64.4991 72.8823 62.6372 73.4536 59.2095 73.6104C55.5033 73.7788 54.3902 73.8153 45.0032 73.8153C35.6157 73.8153 34.503 73.7788 30.7972 73.6104C27.3695 73.4522 25.509 72.8795 24.2687 72.3982C22.6283 71.7608 21.4562 70.9993 20.2257 69.7688C18.9953 68.5384 18.2338 67.3694 17.595 65.728C17.1137 64.4901 16.5403 62.6296 16.3842 59.2019C16.2158 55.4957 16.1821 54.3827 16.1821 44.9942C16.1821 35.6057 16.2158 34.4987 16.3842 30.7925C16.541 27.3648 17.1137 25.5043 17.595 24.265C18.2324 22.6243 18.9953 21.4525 20.2261 20.2221C21.4569 18.9916 22.6283 18.2298 24.2691 17.5913C25.5083 17.1079 27.3695 16.5366 30.7972 16.3791C34.0404 16.2325 35.2972 16.1886 41.8493 16.1812V16.19ZM63.7696 22.0273C61.4405 22.0273 59.5508 23.9152 59.5508 26.2447C59.5508 28.5738 61.4405 30.4634 63.7696 30.4634C66.0987 30.4634 67.9883 28.5738 67.9883 26.2447C67.9883 23.9156 66.0987 22.0259 63.7696 22.0259V22.0273ZM45.0032 26.9566C35.0329 26.9566 26.949 35.0404 26.949 45.0111C26.949 54.9818 35.0329 63.0617 45.0032 63.0617C54.9738 63.0617 63.0548 54.9818 63.0548 45.0111C63.0548 35.0408 54.9731 26.9566 45.0025 26.9566H45.0032ZM45.0032 33.2921C51.4751 33.2921 56.7221 38.5385 56.7221 45.0111C56.7221 51.483 51.4751 56.7301 45.0032 56.7301C38.5312 56.7301 33.2845 51.483 33.2845 45.0111C33.2845 38.5385 38.5309 33.2921 45.0032 33.2921Z" fill="white"/>
</g>
<defs>
<radialGradient id="paint0_radial_4132_1044" cx="0" cy="0" r="1" gradientUnits="userSpaceOnUse" gradientTransform="translate(23.9062 96.9425) rotate(-90) scale(89.1967 82.96)">
<stop stop-color="#FFDD55"/>
<stop offset="0.1" stop-color="#FFDD55"/>
<stop offset="0.5" stop-color="#FF543E"/>
<stop offset="1" stop-color="#C837AB"/>
</radialGradient>
<radialGradient id="paint1_radial_4132_1044" cx="0" cy="0" r="1" gradientUnits="userSpaceOnUse" gradientTransform="translate(-15.0754 6.49391) rotate(78.681) scale(39.8714 164.351)">
<stop stop-color="#3771C8"/>
<stop offset="0.128" stop-color="#3771C8"/>
<stop offset="1" stop-color="#6600FF" stop-opacity="0"/>
</radialGradient>
<clipPath id="clip0_4132_1044">
<rect width="90" height="90" fill="white" transform="translate(0 0.0107422)"/>
</clipPath>
</defs>
</svg>
