<svg width="33" height="35" viewBox="0 0 33 35" fill="none" xmlns="http://www.w3.org/2000/svg">
<g clip-path="url(#clip0_2017_41)">
<path d="M6.8268 0.461196C10.4872 2.55118 14.1967 4.55464 17.9553 6.4716C19.834 7.43381 21.724 8.37735 23.6254 9.30222L29.3333 12.0619L30.0459 12.4073L30.4031 12.5791C30.4541 12.5996 30.5449 12.6575 30.6167 12.6967L30.8435 12.8312C31.4545 13.2176 31.9668 13.7385 32.3404 14.3529C32.7186 14.9893 32.9432 15.7033 32.9966 16.4394C33.0501 17.1754 32.9309 17.9138 32.6485 18.597C32.3559 19.308 31.8973 19.9408 31.3103 20.4436C31.0423 20.6586 30.7628 20.8593 30.473 21.0448L29.8077 21.4743C28.9194 22.0344 28.0387 22.6207 27.1447 23.179C23.5826 25.4345 19.9726 27.6085 16.3148 29.701C14.4852 30.7441 12.6437 31.7673 10.7902 32.7706C9.86408 33.2766 8.92851 33.7621 7.99672 34.2643L7.80772 34.3596L7.528 34.4921C7.34499 34.5835 7.15549 34.6615 6.96099 34.7255C6.76363 34.7915 6.56305 34.8476 6.35997 34.8936C6.15395 34.9291 5.94605 34.9608 5.74003 34.9888C4.91388 35.0591 4.08247 34.9389 3.31132 34.6378C2.55616 34.3472 1.87946 33.8877 1.33435 33.2953C1.20054 33.1473 1.07437 32.9928 0.956344 32.8322C0.844832 32.666 0.735218 32.4999 0.633156 32.33C0.531094 32.16 0.457409 31.9715 0.376137 31.7903C0.294866 31.6092 0.245725 31.4169 0.187134 31.2302L0.145512 31.0883L0.11718 30.9445L0.0661456 30.6551C0.0510253 30.558 0.0321305 30.4684 0.0245704 30.3657L0.0132191 30.0782C0.00285366 29.7761 0.0110829 29.4737 0.0378135 29.1726L0.137991 27.6079L0.574554 21.3454L1.01305 15.0811C1.14725 12.9936 1.27012 10.9061 1.36651 8.81863C1.41187 7.77488 1.46856 6.73113 1.49691 5.68739L1.54795 4.1227C1.55929 3.85943 1.55927 3.60177 1.57817 3.33663L1.61596 2.93706C1.64242 2.80636 1.67455 2.67752 1.70479 2.54682C1.85249 2.03446 2.1162 1.56199 2.47594 1.16512C2.83422 0.773485 3.27569 0.464889 3.76874 0.261409C4.26232 0.0641642 4.79505 -0.0188637 5.32613 0.0186794C5.85334 0.0546457 6.36589 0.205787 6.8268 0.461196ZM6.8268 0.461196C6.36527 0.205638 5.85207 0.0544961 5.32423 0.0186794C4.79602 -0.010648 4.26808 0.0813851 3.78194 0.287552C3.30265 0.494754 2.87858 0.808997 2.54308 1.20557C2.20757 1.60214 1.96978 2.07021 1.84844 2.57296C1.71424 3.06962 1.77475 3.5887 1.7842 4.11337L1.83524 5.67805C1.86359 6.7218 1.92028 7.76555 1.96375 8.80929C2.06014 10.8968 2.18486 12.9843 2.31905 15.0718L2.75755 21.3361L3.19416 27.5986L3.29245 29.1632C3.2975 29.3847 3.31831 29.6056 3.35479 29.8242L3.36992 29.9251C3.37863 29.958 3.38935 29.9905 3.40204 30.0221C3.40204 30.052 3.42286 30.0838 3.43042 30.1155L3.44366 30.1622L3.46821 30.2051C3.57101 30.4346 3.72534 30.6379 3.91954 30.7997C4.11373 30.9614 4.34267 31.0774 4.58898 31.1387C4.81461 31.1959 5.05041 31.2023 5.27887 31.1574C5.33092 31.1367 5.38464 31.1205 5.4395 31.1088C5.49053 31.092 5.54157 31.0603 5.5926 31.0435C5.64696 31.0234 5.69844 30.9964 5.74571 30.9632C5.77011 30.9487 5.79533 30.9356 5.82129 30.924L5.98575 30.8232C6.88351 30.2742 7.7775 29.7159 8.68283 29.1782C10.4897 28.094 12.3079 27.0297 14.1374 25.9853C17.7991 23.8978 21.5099 21.8969 25.2698 19.9824C26.2148 19.4951 27.1598 19.0301 28.1048 18.5559C28.5528 18.33 29.1424 18.0368 29.3031 17.9509C29.5462 17.801 29.7491 17.5954 29.8947 17.3516C30.0562 17.0831 30.1536 16.7818 30.1794 16.4705C30.2053 16.1592 30.159 15.8463 30.044 15.5553C29.9156 15.2472 29.7178 14.9719 29.4656 14.7506L29.3636 14.6666C29.3264 14.6324 29.2866 14.6012 29.2445 14.5732L28.9138 14.3548L28.256 13.916L22.9828 10.4132C21.2188 9.25429 19.4472 8.11034 17.6681 6.98133C14.0946 4.7258 10.4809 2.55242 6.8268 0.461196Z" fill="#822C7E"/>
</g>
<defs>
<clipPath id="clip0_2017_41">
<rect width="33" height="35" fill="white"/>
</clipPath>
</defs>
</svg>
