<svg width="32" height="22" viewBox="0 0 32 22" fill="none" xmlns="http://www.w3.org/2000/svg">
<path fill-rule="evenodd" clip-rule="evenodd" d="M5.26597 20.3193C4.8968 20.6885 4.91411 21.3043 5.30463 21.6948C5.69516 22.0854 6.31101 22.1027 6.68018 21.7335L15.9997 12.4139L25.3193 21.7335C25.6885 22.1027 26.3043 22.0854 26.6948 21.6948C27.0854 21.3043 27.1027 20.6885 26.7335 20.3193L17.4139 10.9997L26.7335 1.68016C27.1027 1.31098 27.0854 0.695128 26.6949 0.304604C26.3043 -0.0859203 25.6885 -0.103231 25.3193 0.265942L15.9997 9.58552L6.68016 0.265942C6.31098 -0.103229 5.69513 -0.0859197 5.3046 0.304605C4.91408 0.695129 4.89677 1.31098 5.26594 1.68016L14.5855 10.9997L5.26597 20.3193Z" fill="#085F55"/>
</svg>
