<svg width="57" height="59" viewBox="0 0 57 59" fill="none" xmlns="http://www.w3.org/2000/svg">
<path d="M43.0396 26.3334L42.8408 26.2138C42.7779 26.1789 42.6984 26.1275 42.652 26.1092L42.3407 25.9548L41.7147 25.6493L36.7135 23.1954C35.0575 22.3686 33.4015 21.5296 31.7454 20.6785C28.4554 18.9706 25.2096 17.1891 22.0079 15.3341C25.2162 17.1891 28.3798 19.1206 31.4987 21.1284C33.0598 22.1246 34.612 23.1418 36.1554 24.18L40.7758 27.2946L41.3537 27.6848L41.6419 27.8791C41.6788 27.9039 41.7136 27.9317 41.7462 27.9621L41.8356 28.0368C42.058 28.2323 42.2315 28.4774 42.3424 28.7524C42.4431 29.011 42.4837 29.2893 42.461 29.5661C42.4384 29.8429 42.353 30.1108 42.2115 30.3495C42.084 30.5664 41.9062 30.7492 41.6932 30.8825C41.5541 30.9589 41.0308 31.2145 40.6433 31.4204C39.8153 31.8421 38.9872 32.2506 38.1592 32.6889C34.867 34.3956 31.6162 36.1749 28.4068 38.0266C26.8027 38.9553 25.2091 39.9011 23.6259 40.864C22.8343 41.3439 22.0493 41.8403 21.2627 42.3284L21.1203 42.4164C21.0971 42.428 21.0739 42.4396 21.0524 42.4529C21.0114 42.4821 20.9669 42.5061 20.9199 42.5243C20.8736 42.5393 20.8305 42.5675 20.7842 42.5824C20.7362 42.5924 20.6891 42.6063 20.6434 42.6239C20.4434 42.6652 20.2366 42.6601 20.0389 42.609C19.8232 42.5542 19.6227 42.451 19.4526 42.3072C19.2825 42.1634 19.1472 41.9828 19.0569 41.7789L19.037 41.7407L19.0254 41.6992C19.0171 41.6709 19.0089 41.6427 18.9989 41.6145C18.9878 41.5869 18.9784 41.5586 18.9708 41.5298L18.9575 41.4402C18.9264 41.2457 18.9087 41.0493 18.9045 40.8524L18.8168 39.4611L18.4342 33.8909L18.05 28.3224C17.9325 26.4662 17.8231 24.61 17.7403 22.7538C17.7006 21.8257 17.6509 20.8976 17.6261 19.9695L17.5863 18.5832C17.5781 18.1183 17.525 17.6568 17.6426 17.2151C17.7491 16.7679 17.9577 16.3516 18.252 15.999C18.5463 15.6463 18.9181 15.367 19.3384 15.183C19.7638 14.9997 20.2258 14.9178 20.6881 14.9439C21.1533 14.975 21.6058 15.1094 22.0129 15.3374C21.6067 15.1062 21.154 14.9689 20.6881 14.9356C20.2233 14.9021 19.757 14.9759 19.3252 15.1514C18.8929 15.3327 18.5056 15.607 18.1908 15.955C17.8764 16.3085 17.6455 16.7284 17.5151 17.1836C17.4903 17.2998 17.4605 17.4144 17.4373 17.5306L17.4058 17.8859C17.3893 18.1217 17.3876 18.3508 17.3777 18.5832L17.333 19.9762C17.3081 20.9043 17.2585 21.8324 17.2204 22.7604C17.1359 24.6166 17.0266 26.4728 16.909 28.329L16.5248 33.8975L16.1423 39.4678L16.0562 40.8591C16.0311 41.1267 16.0234 41.3957 16.033 41.6643L16.0429 41.92C16.0429 42.0063 16.0677 42.086 16.0793 42.1773L16.1241 42.4347L16.1489 42.5625L16.1854 42.6887C16.2383 42.8547 16.2864 43.0207 16.351 43.1868C16.4155 43.3528 16.4983 43.5072 16.5762 43.6649C16.654 43.8226 16.7616 43.9654 16.8593 44.1132C16.957 44.261 17.0796 44.3888 17.1905 44.5249C17.6685 45.0514 18.2613 45.4599 18.9228 45.7187C19.5987 45.9855 20.3269 46.0923 21.0508 46.0308C21.2313 46.0059 21.4134 45.9777 21.5939 45.9461C21.7719 45.9052 21.9476 45.8554 22.1205 45.7967C22.2911 45.7395 22.4572 45.6696 22.6174 45.5875L22.8608 45.4713L23.0264 45.3866C23.8412 44.9466 24.6626 44.515 25.4724 44.0584C27.0964 43.1663 28.7099 42.2559 30.3129 41.3273C33.5212 39.4711 36.6842 37.5385 39.802 35.5296C40.5853 35.0315 41.357 34.5185 42.1354 34.0121L42.7183 33.6319C42.9718 33.4664 43.2166 33.288 43.4519 33.0973C43.9667 32.6506 44.3686 32.0879 44.6244 31.4553C44.8726 30.8492 44.9782 30.194 44.9331 29.5405C44.888 28.8869 44.6934 28.2525 44.3644 27.6865C44.0339 27.1382 43.5802 26.6748 43.0396 26.3334Z" fill="#822C7E"/>
<path d="M54.5107 18.8773C54.4445 18.6565 54.3451 18.4456 54.2706 18.2298L54.0255 17.5823C53.8599 17.1506 53.6595 16.7339 53.479 16.3055C53.2985 15.8772 53.0799 15.4754 52.8795 15.0487C52.6791 14.622 52.4374 14.2302 52.2171 13.8184C51.2839 12.1851 50.1947 10.6465 48.9647 9.22446C46.4504 6.32574 43.3397 4.00742 39.8465 2.42898C36.3054 0.85468 32.479 0.0278718 28.6054 0C28.1219 0 27.6383 0.0094079 27.1547 0.0282243C26.6728 0.0581092 26.1909 0.0979565 25.709 0.132822C25.2271 0.167688 24.7485 0.249041 24.2682 0.298849C23.788 0.348657 23.3127 0.464875 22.8374 0.549549C20.9392 0.934498 19.0857 1.51479 17.3063 2.28121C13.7556 3.81435 10.5463 6.04348 7.86693 8.83762C5.19511 11.5996 3.11449 14.8799 1.75283 18.4772C0.432369 22.0388 -0.15243 25.8324 0.0338873 29.6275C0.215069 33.356 1.07722 37.0195 2.57753 40.4359C4.06385 43.8228 6.13853 46.918 8.70485 49.5773C11.282 52.269 14.3162 54.4795 17.6657 56.1055C21.0826 57.7586 24.8041 58.684 28.5955 58.8234C32.4331 58.945 36.2505 58.2189 39.777 56.6966C43.2791 55.1712 46.4009 52.8874 48.9183 50.009C50.151 48.5933 51.242 47.0596 52.1757 45.43C52.3976 45.0199 52.6295 44.6165 52.8381 44.203C53.0468 43.7896 53.2521 43.3729 53.4393 42.9479C53.6264 42.5229 53.8185 42.1045 53.9858 41.6745L54.2325 41.027C54.312 40.8111 54.3981 40.6003 54.4726 40.3794C55.6812 36.9256 56.3026 33.2927 56.3108 29.6325C56.3249 25.9709 55.7162 22.3337 54.5107 18.8773ZM53.5916 40.0125C53.4061 40.416 53.1859 40.8028 52.9822 41.1963C52.7785 41.5898 52.5351 41.96 52.3198 42.3402C52.1045 42.7204 51.823 43.0757 51.5878 43.4426C51.3527 43.8096 51.0645 44.1499 50.8045 44.5036C49.7339 45.8799 48.5314 47.1477 47.2142 48.289C44.6278 50.5314 41.6808 52.3177 38.4986 53.572C35.3437 54.8199 31.9998 55.5194 28.6104 55.6407C26.9031 55.7008 25.1938 55.613 23.5015 55.3783C21.7911 55.1389 20.1082 54.7318 18.4771 54.163C15.1536 53.0137 12.1184 51.1552 9.5809 48.7157C7.03591 46.249 5.05306 43.2597 3.76825 39.9528C3.12971 38.3111 2.67051 36.6049 2.39871 34.864C2.13262 33.1349 2.04105 31.3833 2.12544 29.6358C2.21704 27.9052 2.47325 26.1874 2.89054 24.5056C2.98991 24.0872 3.11909 23.6755 3.2317 23.2621C3.34431 22.8486 3.50162 22.4469 3.63244 22.0401C3.76327 21.6333 3.93549 21.2382 4.08454 20.8381C4.15575 20.6372 4.25014 20.4462 4.33626 20.2487L4.59129 19.6626C6.00106 16.5678 7.97653 13.7651 10.4155 11.3994C12.8491 9.06853 15.7083 7.23022 18.8365 5.98528C21.9481 4.75069 25.2608 4.10447 28.6071 4.07929C30.2808 4.06589 31.9521 4.20706 33.6 4.50099C35.2501 4.79995 36.8693 5.25011 38.4373 5.84581C41.6299 7.04673 44.5886 8.79813 47.1795 11.0209C48.4997 12.1549 49.7045 13.4174 50.7764 14.7897C51.0347 15.1417 51.3063 15.4887 51.5597 15.8489C51.813 16.2092 52.0565 16.5745 52.2917 16.948C52.5268 17.3216 52.7504 17.7035 52.9541 18.0903C53.1578 18.4772 53.3763 18.869 53.5635 19.2724C55.1175 22.5057 55.9295 26.0468 55.9399 29.6358C55.9478 33.228 55.145 36.7755 53.5916 40.0125Z" fill="#822C7E"/>
</svg>
