<svg width="71" height="114" viewBox="0 0 71 114" fill="none" xmlns="http://www.w3.org/2000/svg">
<path d="M49.6449 31.1269C44.396 21.6241 38.2338 12.6443 31.244 4.31215L27.1633 0L27.7892 5.84866C29.4415 18.9834 37.4778 37.273 39.8311 50.4574C34.048 52.1426 8.03633 53.4808 3.45488 55.4139L0 56.9257L2.27822 61.337C10.0892 76.0826 18.9267 90.3078 26.988 104.954L31.8198 114L31.3942 104.087C30.6181 92.3152 29.5667 84.2609 27.7641 72.6378C38.9298 69.7383 55.7786 72.9352 66.7941 69.1683L71 67.7804L69.1975 64.5587C65.0416 57 53.7757 38.1652 49.6449 31.1269ZM23.1826 65.0792L24.0839 73.3317C24.835 81.2869 25.0102 85.4008 25.8114 93.356C19.6026 81.9313 13.0433 70.6304 6.2087 59.6021C9.33811 58.363 33.9729 56.6034 40.5321 54.3234L44.1622 53.01L43.6365 49.2182C42.3346 38.8839 35.0994 23.37 32.9714 13.1596C41.9591 26.22 56.2042 51.7461 64.4658 65.203C53.8509 67.6069 23.1826 65.0295 23.1826 65.0295V65.0792Z" fill="#F3C959"/>
</svg>
