<svg width="55" height="58" viewBox="0 0 55 58" fill="none" xmlns="http://www.w3.org/2000/svg">
<path d="M12.9644 25.9566L13.1585 25.8387C13.2183 25.8044 13.2959 25.7553 13.3412 25.7356L13.6469 25.5851L14.2566 25.2823L19.1409 22.8634C20.7647 22.0505 22.382 21.2235 23.9928 20.3823C27.2059 18.6976 30.3796 16.9415 33.514 15.114C30.3871 16.9437 27.2975 18.8477 24.2451 20.8258C22.72 21.8078 21.2062 22.8192 19.6973 23.8339L15.1849 26.9042L14.6221 27.2888L14.3391 27.4803C14.3034 27.5053 14.2694 27.5326 14.2372 27.5621L14.1499 27.6357C13.9323 27.8308 13.7618 28.0738 13.6517 28.346C13.5533 28.601 13.5137 28.8754 13.5358 29.1482C13.558 29.421 13.6413 29.6851 13.7795 29.9205C13.9036 30.1346 14.0773 30.3149 14.2857 30.4458C14.4216 30.5211 14.9326 30.7731 15.3111 30.9761C16.1197 31.3934 16.9284 31.7944 17.737 32.2264C20.9523 33.9089 24.1271 35.6628 27.2614 37.4882C28.8281 38.4036 30.3844 39.3364 31.9306 40.2868C32.7053 40.7581 33.4703 41.2475 34.2385 41.7286L34.3792 41.817C34.4014 41.8272 34.423 41.8386 34.4439 41.8514C34.4843 41.881 34.5284 41.9052 34.5749 41.9234C34.6186 41.9365 34.6623 41.9643 34.7059 41.979C34.7529 41.9892 34.7988 42.0035 34.8434 42.0216C35.0388 42.0618 35.2408 42.0562 35.4337 42.0052C35.6445 41.9515 35.8404 41.8498 36.0065 41.708C36.1727 41.5663 36.3048 41.388 36.3928 41.1869L36.4138 41.1493L36.4251 41.1084C36.4317 41.0806 36.4398 41.0533 36.4494 41.0265C36.4602 40.9993 36.4694 40.9714 36.4769 40.9431L36.4898 40.853C36.521 40.662 36.5389 40.4689 36.5432 40.2753L36.6273 38.9022L36.9944 33.4195L37.3696 27.9303C37.4845 26.1006 37.5912 24.2692 37.6737 22.4395C37.7109 21.5246 37.7594 20.6097 37.7836 19.6949L37.8273 18.3234C37.8273 17.8635 37.8872 17.4085 37.7724 16.9748C37.6687 16.5339 37.4654 16.1233 37.1783 15.7754C36.8912 15.4275 36.5282 15.1518 36.1178 14.97C35.7019 14.7892 35.25 14.7091 34.7981 14.7359C34.3439 14.7661 33.9019 14.898 33.5042 15.1222C33.9011 14.8946 34.3431 14.7593 34.7981 14.7261C35.2525 14.6941 35.7082 14.7668 36.1308 14.9389C36.5528 15.1177 36.9306 15.3887 37.237 15.7326C37.5451 16.0797 37.7709 16.4933 37.8969 16.9421C37.9228 17.0567 37.9503 17.1696 37.9729 17.2858L38.0052 17.6344C38.0198 17.8668 38.0214 18.0943 38.0311 18.3234L38.0748 19.6949C38.099 20.6097 38.1476 21.5246 38.1864 22.4395C38.2673 24.2692 38.374 26.1006 38.4888 27.9303L38.864 33.4195L39.2376 38.9087L39.3233 40.2819C39.3462 40.5452 39.3533 40.8098 39.3444 41.074L39.3347 41.326C39.3347 41.4111 39.312 41.4897 39.2991 41.5797L39.2554 41.8334L39.2312 41.9594L39.1956 42.0838C39.1438 42.2474 39.0986 42.4111 39.0339 42.5748C38.9692 42.7384 38.8915 42.8906 38.8139 43.0477C38.7363 43.2049 38.6328 43.3423 38.5373 43.488C38.4419 43.6336 38.3239 43.7597 38.2139 43.8939C37.7466 44.4126 37.1678 44.8157 36.5222 45.0722C35.862 45.3348 35.1507 45.4396 34.4439 45.3783C34.2676 45.3554 34.0897 45.3275 33.9134 45.2948C33.7396 45.2545 33.568 45.2053 33.3991 45.1475C33.2327 45.0914 33.0705 45.023 32.9139 44.9429L32.6746 44.8267L32.5128 44.7433C31.7171 44.3096 30.9166 43.8841 30.1241 43.434C28.538 42.5546 26.9622 41.6572 25.3967 40.7417C22.2645 38.912 19.1754 37.0064 16.1294 35.0251C15.3645 34.5341 14.6108 34.0284 13.8506 33.5308L13.2813 33.1544C13.0334 32.9918 12.7942 32.8159 12.5649 32.6274C12.0629 32.187 11.6707 31.633 11.4198 31.0104C11.1784 30.4116 11.0766 29.7644 11.1223 29.1193C11.168 28.4741 11.36 27.8483 11.6835 27.2904C12.0026 26.7515 12.4411 26.2949 12.9644 25.9566Z" fill="#822C7E"/>
<path d="M-1.28588e-05 29.2134C0.00747796 32.8198 0.613801 36.3993 1.7936 39.8023C1.85991 40.02 1.95533 40.2262 2.02811 40.439L2.26908 41.0773C2.43081 41.5011 2.62652 41.9119 2.80281 42.3325C2.97909 42.7531 3.19418 43.1508 3.38987 43.5698C3.58557 43.9888 3.82169 44.375 4.0368 44.7793C4.94865 46.3865 6.01475 47.899 7.21966 49.2947C9.67845 52.1317 12.7272 54.383 16.1473 55.887C19.5909 57.389 23.3193 58.1048 27.0674 57.9835C30.7731 57.8488 34.4107 56.9365 37.7497 55.3043C41.0205 53.7029 43.9837 51.5256 46.501 48.8741C49.0073 46.2527 51.0335 43.2015 52.4851 39.8629C53.9501 36.4957 54.7921 32.885 54.9692 29.2102C55.1513 25.4691 54.5802 21.7296 53.2905 18.2187C51.962 14.6723 49.9306 11.4386 47.321 8.71647C44.704 5.96212 41.5698 3.76427 38.1023 2.25184C36.3648 1.49595 34.5545 0.924444 32.7005 0.546485C32.2363 0.459744 31.7721 0.364821 31.3047 0.299357C30.8373 0.233892 30.3667 0.173338 29.8961 0.125876C29.4254 0.0784142 28.9547 0.0522266 28.4841 0.0244042C28.0135 -0.00341827 27.5396 0.00149188 27.0674 -0.00341797C23.2844 0.022887 19.5473 0.837385 16.089 2.38931C12.6775 3.94527 9.63954 6.23056 7.18408 9.08798C5.98322 10.4897 4.91997 12.0064 4.00932 13.6165C3.79259 14.0207 3.56617 14.4201 3.36239 14.8276C3.15861 15.2351 2.95804 15.6459 2.77528 16.0665C2.59253 16.4871 2.40657 16.9012 2.2416 17.3251L2.0022 17.9633C1.92457 18.1777 1.84048 18.384 1.7677 18.6016C0.586041 22.0113 -0.0117752 25.6001 -1.28588e-05 29.2134ZM0.371977 29.2134C0.380714 25.675 1.1732 22.1836 2.69118 18.996C2.87394 18.6 3.08907 18.2187 3.288 17.8324C3.48693 17.4462 3.72467 17.0796 3.93492 16.7048C4.14518 16.33 4.42011 15.9814 4.65138 15.6213C4.88266 15.2613 5.16245 14.9258 5.41475 14.5788C6.46357 13.2252 7.64243 11.9802 8.93403 10.8621C11.4639 8.67116 14.3527 6.94472 17.4702 5.76074C19.0016 5.17373 20.5829 4.72999 22.1944 4.43508C23.8027 4.14553 25.4339 4.00638 27.0674 4.01938C30.3354 4.04455 33.5706 4.68155 36.6095 5.89822C39.6662 7.12508 42.4602 8.9372 44.8384 11.2352C47.2224 13.5667 49.153 16.3302 50.5297 19.3823L50.7804 19.96C50.8629 20.1531 50.9551 20.343 51.0246 20.541C51.1702 20.9354 51.3351 21.3233 51.4678 21.7243C51.6004 22.1253 51.7427 22.5229 51.8575 22.9288C51.9724 23.3347 52.0937 23.7471 52.1923 24.1547C52.5986 25.8132 52.8483 27.5071 52.9379 29.2134C53.0211 30.936 52.9317 32.6628 52.671 34.3671C52.4056 36.0827 51.9571 37.764 51.3335 39.3817C50.076 42.6425 48.1362 45.5893 45.6471 48.0198C43.1699 50.4226 40.2074 52.2535 36.9637 53.3862C35.3712 53.9468 33.7282 54.348 32.0584 54.5842C30.4052 54.8156 28.7353 54.9021 27.0674 54.8428C23.7573 54.7231 20.4915 54.0335 17.4104 52.8036C14.3024 51.5675 11.4242 49.8066 8.89845 47.5959C7.61209 46.4709 6.43772 45.2211 5.39213 43.8644C5.13983 43.5174 4.87459 43.1738 4.62714 42.8186C4.37969 42.4635 4.14192 42.1018 3.91226 41.7335C3.6826 41.3653 3.46426 40.9872 3.26533 40.6043C3.06641 40.2213 2.85131 39.8351 2.67017 39.439C1.15127 36.2497 0.365567 32.7538 0.371977 29.2134Z" fill="#822C7E"/>
</svg>
