<svg viewBox="0 0 554 211" fill="none" xmlns="http://www.w3.org/2000/svg">
<clipPath id="path-quote">
<path d="M17.3446 36.6461H462.885L469.206 0L499.682 36.6461H536.628C541.235 36.6461 545.654 38.4736 548.912 41.7265C552.17 44.9795 554 49.3915 554 53.9919V193.654C554 198.255 552.17 202.667 548.912 205.92C545.654 209.173 541.235 211 536.628 211L17.3718 208.91C12.7669 208.91 8.35042 207.084 5.09293 203.834C1.83544 200.584 0.00360327 196.176 0 191.578V53.9919C-5.63603e-06 49.3962 1.82649 44.9883 5.07849 41.7362C8.33049 38.484 12.742 36.6533 17.3446 36.6461Z"/>
</clipPath>
</svg>
