<svg width="91" height="60" viewBox="0 0 91 60" fill="none" xmlns="http://www.w3.org/2000/svg">
<path d="M42.7331 3.87621C42.6138 3.5319 42.3812 3.23824 42.0733 3.04336C41.7654 2.84848 41.4005 2.76394 41.0382 2.80346L38.7211 2.61037C37.1763 2.48164 35.6529 2.39581 34.1082 2.33144C31.0186 2.18126 27.9507 2.11688 24.8182 2.05252C21.6858 1.98815 18.6392 1.81652 15.5711 1.79507C14.0478 1.79507 12.5245 1.79506 11.0226 1.98816C10.2717 1.98816 9.52077 2.13835 8.87712 2.26708C8.51238 2.26708 8.12617 2.26707 7.78289 2.46017C7.47357 2.49953 7.17058 2.57883 6.88168 2.69614H6.60289C6.52538 2.67705 6.44429 2.67705 6.36678 2.69614V2.80346L6.23806 3.12527C6.01701 3.61949 5.83059 4.12847 5.6802 4.64856C5.33891 5.71308 5.05254 6.79442 4.82208 7.8883C4.32861 10.0338 3.98525 12.3509 3.66342 14.6252C2.99832 19.1522 2.50493 23.7436 1.73255 28.3135C1.62527 28.8928 1.5394 29.4506 1.41067 30.0299L1.21765 30.8881C1.16452 31.0776 1.16452 31.2779 1.21765 31.4674C1.29528 31.6656 1.41664 31.8438 1.57265 31.9887C1.72867 32.1336 1.91528 32.2414 2.11872 32.3042C2.63828 32.4278 3.17368 32.4712 3.70637 32.4329L10.615 32.583C15.2342 32.6511 19.8465 32.9663 24.432 33.5271H24.9898L24.7323 34.0205C22.9032 37.5762 20.2106 40.6156 16.9013 42.86C15.2233 43.9797 13.4055 44.8742 11.4946 45.5205C10.543 45.8464 9.56742 46.0974 8.57672 46.2714C7.65415 46.5074 6.43122 46.4645 6.04503 46.7434V46.8507C6.04503 47.0009 5.87329 47.194 5.80893 47.3656C5.67558 47.7323 5.58909 48.1143 5.55148 48.5027C5.51497 49.4002 5.57253 50.2991 5.72316 51.1846L6.06651 53.9737L6.21658 55.3684C6.2182 55.5013 6.24997 55.6321 6.30942 55.7511C6.36888 55.87 6.45455 55.9738 6.55993 56.0549L6.86034 56.3982V56.8273C6.86034 57.3207 7.07482 57.5568 7.33229 57.5782H7.61121L8.19054 57.4709L9.37054 57.2778C10.9582 56.9989 12.503 56.6986 14.0477 56.3124C17.1104 55.5982 20.0934 54.5775 22.9516 53.2657C28.6364 50.641 33.345 46.2853 36.4039 40.8218C39.064 35.0433 40.8638 28.9064 41.7462 22.6064C42.304 19.4525 42.6902 16.17 42.9906 13.059C43.1408 11.4713 43.2481 9.86213 43.3339 8.253V5.85004V4.99185C43.2506 4.56796 43.0411 4.17914 42.7331 3.87621ZM42.9263 3.87621C43.1499 4.23614 43.2618 4.6542 43.248 5.07769V6.27917L43.3768 8.7036C43.3768 10.3342 43.3768 11.9433 43.3768 13.5739C43.3768 16.8136 43.0121 20.0104 42.6259 23.2715C42.2628 26.5078 41.6968 29.7181 40.931 32.8834C40.2027 36.0971 39.1383 39.2254 37.7555 42.2164C34.5543 48.1575 29.52 52.9058 23.4021 55.7545C20.4039 57.1462 17.2589 58.1969 14.0263 58.8869C12.4171 59.2517 10.808 59.5306 9.19887 59.7881L7.99739 59.9597H7.39671C7.09154 60.0134 6.77934 60.0134 6.47416 59.9597C6.13595 59.8993 5.81337 59.7712 5.52581 59.5832C5.23826 59.3952 4.99158 59.1511 4.8006 58.8655C4.4805 58.3441 4.32355 57.7389 4.35 57.1276L4.6504 57.8786C4.14556 57.4039 3.82617 56.765 3.74933 56.0763L3.59913 54.6174L3.3202 51.721C3.20081 50.7089 3.20081 49.6864 3.3202 48.6743C3.38423 48.1153 3.52128 47.5672 3.72785 47.0438L4.1355 46.2714V46.0783L4.37148 45.8208C4.53875 45.6785 4.72691 45.5627 4.92933 45.4775C5.4678 45.1773 6.07224 45.0152 6.68866 45.0055C7.16067 45.0055 7.63273 45.0055 8.08329 44.8553C9.01153 44.719 9.92909 44.5183 10.8295 44.2546C12.6484 43.7448 14.3882 42.9868 16.0001 42.0018C19.2619 39.9926 21.9514 37.1775 23.8098 33.8275L24.1102 34.4282C19.5713 33.7522 14.9892 33.4079 10.4003 33.3983H3.49188C2.8748 33.4449 2.2543 33.4088 1.64677 33.2911C1.29521 33.2035 0.969546 33.0332 0.697114 32.7944C0.424682 32.5555 0.213277 32.255 0.0804641 31.9179C-0.0268214 31.5538 -0.0268214 31.1664 0.0804641 30.8023L0.230665 29.9656C0.230665 29.4077 0.380819 28.8284 0.466639 28.2706C1.00302 23.7221 1.26058 19.1307 1.7755 14.5179C2.05441 12.2222 2.37624 9.92654 2.84825 7.63085C3.07071 6.4696 3.36443 5.32315 3.72785 4.19802C3.89949 3.61874 4.13547 3.06087 4.37148 2.48158C4.37148 2.33139 4.37155 2.24559 4.58611 2.03104C4.70487 1.81544 4.85684 1.61996 5.03658 1.45178C5.39926 1.11007 5.86956 0.905215 6.36678 0.872451H6.04503C6.47772 0.692341 6.93216 0.569755 7.39671 0.507751L8.57672 0.314664L10.9582 0.0572135C12.5244 0.0572135 14.1121 -0.0715169 15.6783 0.0572135C18.8108 0.0572135 21.9002 0.40045 24.9898 0.615C28.0793 0.829551 31.1688 1.0012 34.2584 1.36594C35.8031 1.53758 37.3479 1.73067 38.8713 1.96668L41.1884 2.33144C41.601 2.37588 41.9975 2.51542 42.347 2.7391C42.6573 3.01078 42.8624 3.38287 42.9263 3.79037V3.87621Z" fill="#822C7E"/>
<path d="M34.3442 37.8182C32.1379 42.8323 28.5038 47.0857 23.8956 50.0476C19.217 52.9472 14.035 54.9413 8.6196 55.9263L7.6541 56.1194L7.52537 55.0896C7.28936 53.3303 6.98898 51.6139 6.83879 49.8117V48.8462H7.76134C10.0585 48.6215 12.3122 48.0725 14.4553 47.2156C16.6307 46.4054 18.6986 45.3318 20.6129 44.0188C22.5462 42.7249 24.2199 41.0802 25.5475 39.1699C26.8809 37.2987 27.5323 35.0268 27.3928 32.7334C27.4143 32.5231 27.3905 32.3106 27.3231 32.1102C27.2557 31.9098 27.1461 31.7262 27.0018 31.5717C26.8574 31.4172 26.6818 31.2954 26.4865 31.2146C26.2911 31.1337 26.0807 31.0956 25.8694 31.1029C24.861 30.8883 23.874 30.6952 22.8657 30.5665C20.8489 30.309 18.8107 30.1373 16.7725 30.0515C12.696 29.837 8.61953 30.0516 4.52161 30.1588H3.72778V29.4294C4.32852 25.3315 4.58604 21.1477 4.99369 16.9854C5.40134 12.8231 5.70171 8.63941 6.47409 4.41276L6.64564 3.42578L7.67557 3.59746C10.2617 3.96496 12.8739 4.11565 15.4851 4.048C18.1241 4.048 20.8489 3.94069 23.5308 4.15525C28.8945 4.58435 34.2583 4.84182 39.6006 5.3782L40.6948 5.48551L40.4803 6.55827C39.901 9.11142 39.5577 11.7504 39.1286 14.3894L38.0559 22.1561C37.6268 24.795 37.1333 27.434 36.597 30.0515C36.0883 32.7046 35.3341 35.3047 34.3442 37.8182ZM34.151 37.8182C35.8584 32.7598 36.8549 27.4887 37.1119 22.1561C37.6053 16.8352 37.7769 11.4285 38.678 6.12914L39.5363 7.28773C34.2154 7.09464 28.8088 6.66553 23.5952 6.3437C20.9348 6.12915 18.3172 6.3437 15.6138 6.3437C12.875 6.35596 10.1403 6.13344 7.43947 5.6786L8.64094 4.88478C7.84711 8.87542 7.41799 13.0806 6.88161 17.2C6.34524 21.3193 5.89473 25.5245 5.05799 29.6868L4.45731 28.9788C8.55523 28.9788 12.6531 29.1075 16.751 29.3221C18.7893 29.4508 20.8489 29.6439 22.8871 29.9443L25.9337 30.4163C26.521 30.4676 27.0735 30.7173 27.5 31.1243C27.713 31.3484 27.875 31.6159 27.975 31.9084C28.075 32.201 28.1105 32.5117 28.0792 32.8192C28.2729 35.3152 27.6721 37.8085 26.3628 39.9423C25.0612 42.043 23.3807 43.8836 21.4067 45.3705C17.4806 48.422 12.8032 50.3567 7.86859 50.9702L8.72685 49.9189L9.37047 55.2183L8.27625 54.403C13.5628 53.6355 18.6873 52.0047 23.445 49.5756C25.7915 48.2954 27.9205 46.6516 29.7528 44.7054C31.6072 42.65 33.0949 40.2914 34.151 37.7325V37.8182Z" fill="#822C7E"/>
<path d="M90.0414 3.87621C89.9221 3.5319 89.6895 3.23824 89.3816 3.04336C89.0737 2.84848 88.7088 2.76394 88.3465 2.80346L86.0293 2.61037C84.506 2.48164 82.9614 2.39581 81.4166 2.33144C78.3271 2.18126 75.259 2.11688 72.148 2.05252C69.037 1.98815 65.9475 1.81652 62.8794 1.79507C61.3561 1.79507 59.8328 1.79506 58.3309 1.98816C57.58 1.98816 56.8291 2.13835 56.0782 2.26708C55.7134 2.26708 55.3272 2.26707 54.9839 2.46017C54.6746 2.49953 54.3716 2.57883 54.0827 2.69614H53.8039C53.7264 2.67705 53.6453 2.67705 53.5678 2.69614V2.80346L53.4391 3.12527C53.2181 3.61949 53.0316 4.12847 52.8813 4.64856C52.54 5.71308 52.2536 6.79442 52.0231 7.8883C51.5297 10.0338 51.1863 12.3509 50.8645 14.6252C50.1994 19.1522 49.706 23.7436 48.9336 28.3135C48.9336 28.8928 48.7404 29.4506 48.6117 30.0299L48.4187 30.8881C48.3656 31.0776 48.3656 31.2779 48.4187 31.4674C48.4963 31.6656 48.6177 31.8438 48.7737 31.9887C48.9297 32.1336 49.1163 32.2414 49.3198 32.3042C49.8393 32.4278 50.3747 32.4712 50.9074 32.4329L57.816 32.583C62.4353 32.6504 67.0476 32.9655 71.6331 33.5271H72.1908L71.9334 34.0205C70.1042 37.5762 67.4116 40.6156 64.1023 42.86C62.4243 43.9797 60.6065 44.8742 58.6956 45.5205C57.744 45.8464 56.7685 46.0974 55.7778 46.2714C54.8552 46.5074 53.525 46.4645 53.2461 46.7434V46.8507C53.2461 47.0009 53.0743 47.194 53.01 47.3656C52.8738 47.7304 52.7942 48.1139 52.774 48.5027C52.7199 49.3995 52.7703 50.2995 52.9242 51.1846L53.2676 53.9737L53.4176 55.3684C53.4192 55.5013 53.451 55.6321 53.5105 55.7511C53.5699 55.87 53.6556 55.9738 53.761 56.0549L54.0614 56.3982V56.8273C54.0614 57.3207 54.2973 57.5568 54.5333 57.5782H54.8123L55.3916 57.4709L56.5716 57.2778C58.1593 56.9989 59.704 56.6986 61.2488 56.3124C64.3114 55.5982 67.2945 54.5775 70.1527 53.2657C75.8374 50.641 80.5461 46.2853 83.6049 40.8218C86.265 35.0433 88.0649 28.9064 88.9472 22.6064C89.505 19.4525 89.8913 16.17 90.1916 13.059C90.3418 11.4713 90.4492 9.86213 90.535 8.253V5.85004V4.99185C90.5001 4.57519 90.3262 4.18233 90.0414 3.87621ZM90.2346 3.87621C90.4581 4.23614 90.57 4.6542 90.5563 5.07769V6.27917L90.6852 8.7036C90.6852 10.3342 90.6852 11.9433 90.6852 13.5739C90.6852 16.8136 90.3204 20.0104 89.9342 23.2715C89.5711 26.5078 89.0051 29.7181 88.2393 32.8834C87.511 36.0971 86.4466 39.2254 85.0638 42.2164C81.8645 48.1512 76.8392 52.8982 70.7319 55.7545C67.7249 57.143 64.5732 58.1936 61.3346 58.8869C59.7254 59.2517 58.1163 59.5306 56.5072 59.7881L55.3057 59.9597H54.705C54.3998 60.0134 54.0876 60.0134 53.7825 59.9597C53.4464 59.9014 53.1261 59.7741 52.8417 59.5858C52.5574 59.3974 52.3152 59.1521 52.1304 58.8655C51.7937 58.3504 51.6286 57.7422 51.6584 57.1276L51.9587 57.8786C51.4539 57.4039 51.1345 56.765 51.0576 56.0763L50.9074 54.6174L50.6285 51.721C50.5091 50.7089 50.5091 49.6864 50.6285 48.6743C50.6925 48.1153 50.8296 47.5672 51.0362 47.0438L51.4438 46.2714C51.4764 46.2007 51.5199 46.1356 51.5725 46.0783L51.7872 45.8208C51.9544 45.6785 52.1425 45.5627 52.3449 45.4775C52.8833 45.1773 53.4878 45.0152 54.1042 45.0055C54.5762 45.0055 55.0483 45.0055 55.4988 44.8553C56.4271 44.719 57.3446 44.5183 58.245 44.2546C60.0639 43.7448 61.8039 42.9868 63.4158 42.0018C66.6775 39.9926 69.3671 37.1775 71.2254 33.8275L71.5257 34.4282C66.9869 33.7522 62.4049 33.4079 57.816 33.3983H50.9289C50.3118 33.4449 49.6913 33.4088 49.0838 33.2911C48.7337 33.2003 48.4096 33.0288 48.1377 32.7904C47.8657 32.5519 47.6533 32.2532 47.5175 31.9179C47.3995 31.5554 47.3995 31.1648 47.5175 30.8023L47.6462 29.9656C47.6462 29.4077 47.7965 28.8284 47.8823 28.2706C48.4187 23.7221 48.6761 19.1307 49.191 14.5179C49.47 12.2222 49.7918 9.92654 50.2638 7.63085C50.4863 6.4696 50.78 5.32315 51.1434 4.19802C51.315 3.61874 51.5512 3.06087 51.7872 2.48158C51.7872 2.33139 51.8944 2.24559 52.0017 2.03104C52.1204 1.81544 52.2725 1.61996 52.4523 1.45178C52.8149 1.11007 53.2852 0.905215 53.7825 0.872451H53.4606C53.8933 0.692341 54.3477 0.569755 54.8123 0.507751L55.9923 0.314664L58.3737 0.0572135C59.9614 0.0572135 61.5277 -0.0715169 63.0939 0.0572135C66.2263 0.0572135 69.3159 0.40045 72.4054 0.615C75.495 0.829551 78.5845 1.0012 81.674 1.36594C83.2188 1.53758 84.7635 1.73067 86.3083 1.96668L88.604 2.33144C89.0165 2.37588 89.413 2.51542 89.7625 2.7391C90.0334 3.0266 90.1997 3.39689 90.2346 3.79037V3.87621Z" fill="#822C7E"/>
<path d="M81.6526 37.8188C79.4569 42.8566 75.8219 47.1335 71.204 50.1126C66.5253 53.0121 61.3434 55.0063 55.928 55.9913L54.9625 56.1843L54.8338 55.1545C54.5977 53.3952 54.2974 51.6788 54.1472 49.8766V48.9111H55.0697C57.3669 48.6864 59.6206 48.1374 61.7637 47.2805C63.9391 46.4703 66.007 45.3967 67.9213 44.0837C69.8546 42.7898 71.5283 41.1452 72.8559 39.2349C74.1893 37.3637 74.8407 35.0918 74.7012 32.7983C74.7227 32.588 74.6989 32.3755 74.6315 32.1751C74.5641 31.9748 74.4546 31.7912 74.3103 31.6367C74.1659 31.4822 73.9902 31.3605 73.7948 31.2796C73.5995 31.1987 73.3891 31.1606 73.1778 31.1678C72.1694 30.9533 71.1824 30.7602 70.174 30.6314C68.1573 30.374 66.1191 30.2023 64.0809 30.1165C60.0044 29.9019 55.9279 30.1165 51.8515 30.2238H51.1221L51.2293 29.4943C51.8301 25.3964 52.0874 21.2126 52.4951 17.0503C52.9027 12.8881 53.2031 8.70435 53.9755 4.4777L54.1472 3.49072L55.177 3.6624C57.7631 4.0299 60.3754 4.18059 62.9866 4.11294C65.6256 4.11294 68.3504 4.0057 71.0323 4.22025C76.3961 4.64935 81.7598 4.90676 87.1021 5.44314L88.1963 5.55046L87.9818 6.62321C87.4026 9.17636 87.0593 11.8153 86.6302 14.4543L85.257 22.1567C84.8279 24.7956 84.3345 27.4346 83.7981 30.0521C83.3242 32.7017 82.606 35.3017 81.6526 37.8188ZM81.4594 37.8188C83.1668 32.7604 84.1633 27.4893 84.4202 22.1567C84.9137 16.8358 85.0854 11.4291 85.9865 6.12972L86.8447 7.28831C81.5238 7.09521 76.1172 6.66611 70.9036 6.34428C68.2431 6.12973 65.6257 6.34428 62.9224 6.34428C60.1836 6.35653 57.4488 6.13402 54.748 5.67918L55.9495 4.88535C55.1556 8.87599 54.748 13.0812 54.1901 17.2005C53.6323 21.3199 53.2031 25.5251 52.3664 29.6874L51.7657 28.9793C55.8636 28.9793 59.9615 29.1081 64.0594 29.3226C66.2049 29.4514 68.1573 29.6445 70.1955 29.9448L73.2422 30.4169C73.8296 30.4682 74.3819 30.7178 74.8084 31.1248C75.0214 31.349 75.1834 31.6164 75.2834 31.909C75.3834 32.2015 75.419 32.5122 75.3877 32.8198C75.5814 35.3158 74.9805 37.8091 73.6712 39.9429C72.3696 42.0436 70.689 43.8842 68.7151 45.371C64.7889 48.4226 60.1116 50.3572 55.177 50.9708L56.0352 49.9195L56.6789 55.2189L55.5846 54.4036C60.8711 53.6361 65.9956 52.0053 70.7534 49.5762C73.0999 48.296 75.2289 46.6522 77.0612 44.7059C78.9156 42.6506 80.4033 40.292 81.4594 37.733V37.8188Z" fill="#822C7E"/>
</svg>
