<svg width="361" height="4" viewBox="0 0 361 4" fill="none" xmlns="http://www.w3.org/2000/svg">
<path d="M0 2L11.2831 1.70001L22.5662 1.47L45.1207 1.03C60.1725 0.789999 75.2166 0.596679 90.2529 0.450012C105.328 0.260012 120.333 0.219985 135.374 0.109985L180.506 0L225.626 0.109985C240.701 0.219985 255.707 0.250002 270.747 0.440002C285.787 0.630002 300.828 0.789989 315.879 1.01999L338.434 1.47L349.717 1.70001L361 2L349.717 2.29999L338.434 2.53L315.879 2.98001C300.804 3.21001 285.787 3.43 270.747 3.56C255.707 3.69 240.667 3.78001 225.626 3.89001L180.506 4L135.374 3.89001C120.299 3.78001 105.293 3.73999 90.2529 3.54999C75.2127 3.35999 60.1725 3.21 45.1207 2.97L22.5662 2.53L11.2831 2.29999L0 2Z" fill="#822C7E"/>
</svg>
