<svg width="75" height="79" viewBox="0 0 75 79" fill="none" xmlns="http://www.w3.org/2000/svg">
<path d="M53.3483 3.36205C48.5874 1.19966 43.4275 0.0548628 38.1988 0.000719481C32.9577 -0.0316235 27.7672 1.02681 22.9573 3.10883C18.1769 5.18262 13.8626 8.19707 10.2713 11.9728C6.7137 15.7129 3.9562 20.1392 2.16718 24.9811C0.471225 29.7624 -0.241485 34.8369 0.0719619 39.9003C0.783803 49.7923 4.92895 59.1249 11.791 66.2852C15.1918 69.8816 19.1874 72.8647 23.602 75.1032C28.1416 77.4045 33.1153 78.7225 38.1988 78.9712C43.3656 79.1833 48.5134 78.2229 53.2562 76.1622C57.9505 74.0585 62.1008 70.9083 65.3895 66.9529C71.5574 59.2408 74.8753 49.6368 74.7831 39.7621C74.9281 29.8797 71.6225 20.2559 65.4356 12.5484C62.1564 8.60809 58.0227 5.46653 53.3483 3.36205ZM74.0694 39.9003C74.0735 44.6035 72.9693 49.2414 70.8462 53.4381C68.7303 57.5003 65.8081 61.0884 62.2584 63.9829C58.8433 66.7714 55.0034 68.9944 50.8848 70.5676C46.8214 72.1447 42.5297 73.0544 38.1759 73.2614C33.7384 73.5188 29.2912 72.9648 25.0525 71.6267C20.6843 70.2326 16.6866 67.8717 13.3565 64.7196C10.0425 61.5327 7.47223 57.6541 5.82867 53.3601C4.18511 49.0661 3.50871 44.4626 3.84784 39.8774C4.52489 31.0166 8.45248 22.7184 14.876 16.5775C21.2161 10.6995 29.5304 7.41322 38.1759 7.36811C46.9309 7.34949 55.423 10.3592 62.2124 15.8868C65.7666 18.7676 68.6898 22.3492 70.8001 26.4086C72.9402 30.5855 74.068 35.2071 74.0925 39.9003H74.0694Z" fill="#F3C959"/>
<path d="M47.9609 53.4122C47.3441 53.8139 46.6975 54.168 46.0269 54.4713C43.5673 55.7254 40.8654 56.4323 38.1068 56.5435C35.3606 56.5384 32.6545 55.8836 30.2098 54.6325C27.4736 53.2352 24.8691 51.5938 22.4279 49.7285C23.5872 52.882 25.6243 55.6381 28.2988 57.6716C31.088 59.9415 34.5799 61.1706 38.176 61.1482C41.7423 61.0262 45.1707 59.7404 47.9379 57.4874C49.232 56.4234 50.4195 55.236 51.4835 53.9418C52.4107 52.5935 53.2491 51.186 53.9931 49.7285C52.6056 50.5083 51.2607 51.3613 49.964 52.2841L47.9609 53.4122Z" fill="#F3C959"/>
<path d="M26.6181 38.1943C28.9205 38.1943 30.8084 34.7638 30.8084 30.5505C30.8084 26.3372 28.9435 22.8838 26.6181 22.8838C24.2928 22.8838 22.4279 26.3142 22.4279 30.5505C22.4279 34.7868 24.3158 38.1943 26.6181 38.1943Z" fill="#F3C959"/>
<path d="M49.8028 22.8838C47.5004 22.8838 45.6125 26.3142 45.6125 30.5505C45.6125 34.7868 47.4774 38.1943 49.8028 38.1943C52.1281 38.1943 53.9931 34.7638 53.9931 30.5505C53.9931 26.3372 52.1051 22.8838 49.8028 22.8838Z" fill="#F3C959"/>
</svg>
