<svg width="90" height="91" viewBox="0 0 90 91" fill="none" xmlns="http://www.w3.org/2000/svg">
<g clip-path="url(#clip0_4132_1038)">
<path d="M45 0.0107422C33.068 0.0107422 21.6141 4.75473 13.1836 13.1908C4.74449 21.6303 0.00241487 33.0758 0 45.0107C0 56.9407 4.74609 68.3946 13.1836 76.8307C21.6141 85.2668 33.068 90.0107 45 90.0107C56.932 90.0107 68.3859 85.2668 76.8164 76.8307C85.2539 68.3946 90 56.9407 90 45.0107C90 33.0808 85.2539 21.6269 76.8164 13.1908C68.3859 4.75473 56.932 0.0107422 45 0.0107422Z" fill="url(#paint0_linear_4132_1038)"/>
<path d="M20.3694 44.5354C33.4897 38.8204 42.2366 35.0526 46.61 33.232C59.1116 28.0338 61.7061 27.131 63.4007 27.1004C63.7733 27.0944 64.603 27.1865 65.1444 27.6242C65.5944 27.9933 65.721 28.4926 65.7843 28.8431C65.8405 29.1932 65.9179 29.9913 65.8546 30.6142C65.1796 37.7299 62.2475 54.9972 60.7569 62.9671C60.1311 66.3393 58.8866 67.4699 57.6843 67.5803C55.0686 67.8208 53.0858 65.8534 50.5546 64.1948C46.596 61.5981 44.36 59.9824 40.5139 57.449C36.0702 54.5212 38.953 52.9117 41.4843 50.282C42.1452 49.5937 53.6624 39.1206 53.8803 38.1707C53.9085 38.0519 53.9366 37.6089 53.6694 37.3755C53.4093 37.1413 53.0225 37.2215 52.7413 37.2848C52.3405 37.3748 46.0194 41.557 33.7569 49.8306C31.9639 51.0639 30.3397 51.6651 28.8772 51.6334C27.2741 51.599 24.1804 50.725 21.8811 49.9783C19.0686 49.0621 16.8257 48.5777 17.0225 47.0217C17.121 46.2117 18.2389 45.3827 20.3694 44.5354Z" fill="white"/>
</g>
<defs>
<linearGradient id="paint0_linear_4132_1038" x1="4500" y1="0.0107422" x2="4500" y2="9000.01" gradientUnits="userSpaceOnUse">
<stop stop-color="#2AABEE"/>
<stop offset="1" stop-color="#229ED9"/>
</linearGradient>
<clipPath id="clip0_4132_1038">
<rect width="90" height="90" fill="white" transform="translate(0 0.0107422)"/>
</clipPath>
</defs>
</svg>
