<svg width="134" height="152" viewBox="0 0 134 152" fill="none" xmlns="http://www.w3.org/2000/svg">
<path d="M15.7701 39.2856C6.51297 58.8471 8.95648 81.1831 26.9428 94.4761C43.81 106.976 65.805 105.677 79.1429 90.6325C97.2929 106.883 102.792 111.995 120.958 128.315L122.669 129.864L124.942 129.038C127.409 127.904 129.545 126.157 131.145 123.963L132.355 122.028L130.226 119.855C112.231 101.652 105.501 95.8882 86.4887 78.7704C95.436 56.4287 92.1063 30.2501 69.3811 17.5171C47.6058 5.34272 25.4303 18.911 15.7701 39.2856ZM67.8219 19.9362C89.5838 30.9903 91.6661 56.3188 84.3179 76.8515L83.5414 78.9173L85.5922 80.8783C98.3089 92.679 98.5139 93.1934 111.105 105.138C110.627 105.623 110.174 106.159 109.758 106.601C108.87 107.497 108.049 108.435 107.255 109.425C107.112 109.402 106.965 109.418 106.83 109.472C106.695 109.526 106.578 109.616 106.49 109.731C106.288 110.07 106.065 110.396 105.822 110.706C93.5745 99.3157 93.2315 99.8268 80.5652 88.9939L78.9161 87.5883L77.5042 89.2101C72.6634 94.8734 66.0816 98.7719 58.7887 100.295C48.8387 102.302 38.0406 98.5705 29.701 93.3215C11.5272 81.9008 9.95974 60.4286 17.3833 42.0965C25.7045 21.4114 46.8048 9.30089 67.8219 19.9362Z" fill="#085F55"/>
<path d="M17.7735 51.2812C16.3638 55.5243 15.8063 60.004 16.1328 64.4631C16.5109 69.0327 18.0215 73.4361 20.5278 77.2756C22.9908 81.0518 26.2629 84.2328 30.107 86.5882C33.8717 88.9475 38.089 90.4918 42.487 91.1215C46.8046 91.7191 51.1981 91.45 55.4105 90.3301C63.6825 88.1971 70.9661 83.2772 76.0335 76.3998C78.6098 72.9735 80.49 69.0758 81.568 64.9268C82.1059 62.8061 82.4015 60.6313 82.4493 58.4441C82.4881 57.3393 82.44 56.2332 82.3057 55.1359C82.206 54.0465 82.0383 52.9645 81.8033 51.8961C80.9345 47.6642 79.3893 43.6 77.2272 39.8598C75.0609 36.055 72.1243 32.7442 68.6053 30.1392C65.1057 27.5914 61.0408 25.9294 56.7587 25.2958C52.6204 24.7593 48.4198 24.9625 44.3527 25.8957C36.2435 27.7658 29.1499 33.1032 23.8759 39.8355C21.2153 43.2822 19.1525 47.1513 17.7735 51.2812ZM44.502 26.4806C48.4491 25.5406 52.5715 25.6313 56.4734 26.7442C60.2306 27.8969 63.6195 30.0157 66.3013 32.8886C68.9393 35.7002 71.1645 38.8724 72.91 42.3101C74.7017 45.7566 76.1696 49.362 77.2948 53.0798C78.4679 56.7367 78.8678 60.5975 78.4692 64.4172C78.3902 65.3859 78.1618 66.3315 77.9976 67.3055C77.8333 68.2796 77.4661 69.1852 77.2072 70.1234C76.9483 71.0617 76.4622 71.9515 76.0172 72.8319C75.5721 73.7122 75.1165 74.6094 74.54 75.4193C72.3039 78.7314 69.3645 81.5091 65.9313 83.5544C62.5226 85.578 58.7338 86.8783 54.8008 87.3743C47.1465 88.3677 39.3929 86.5294 32.9993 82.2054C29.955 80.0934 27.3913 77.362 25.4763 74.1901C23.6092 71.0526 22.4425 67.5485 22.0559 63.918C21.7219 60.1832 22.0327 56.4187 22.9748 52.7892C23.879 49.0105 25.2305 45.3531 27.0008 41.8945C28.7625 38.3226 31.1288 35.0824 33.995 32.3171C36.9242 29.4828 40.548 27.4699 44.502 26.4806Z" fill="#085F55"/>
<path d="M34.0841 42.1329C37.1819 41.7642 40.0074 41.2134 42.7739 40.7194C45.5404 40.2254 48.208 39.7398 50.7999 39.4877C53.2782 39.1698 55.7915 39.2515 58.244 39.7296C59.4757 40.0073 60.6659 40.4446 61.7845 41.0303C63.0087 41.7664 64.1665 42.6077 65.2448 43.5448C65.0701 41.9385 64.5122 40.3977 63.6181 39.0519C62.6423 37.6302 61.3553 36.4493 59.855 35.5991C56.8808 34.0464 53.505 33.4337 50.1748 33.8422C47.064 34.1787 44.0409 35.081 41.2545 36.5044C38.5107 37.8802 36.0721 39.7944 34.0841 42.1329Z" fill="#085F55"/>
</svg>
